<?xml version="1.0" standalone="no"?>
<!DOCTYPE svg PUBLIC "-//W3C//DTD SVG 1.1//EN" "http://www.w3.org/Graphics/SVG/1.1/DTD/svg11.dtd" >
<svg xmlns="http://www.w3.org/2000/svg">
<metadata>
Created by FontPrep 20130207 at Mon Dec  2 23:11:53 2013
 By Dallin Atkinson
2013 Chess.com
</metadata>
<defs>
<font id="0b7a083b95e697b7a8aa5db8d7e4dd2c" horiz-adv-x='1024' >
  <font-face 
    font-family="ChessGlyph-Regular"
    font-weight="400"
    font-stretch="normal"
    units-per-em="2048"
    panose-1="0 0 5 0 0 0 0 0 0 0"
    ascent="1638"
    descent="-410"
    x-height="1126"
    cap-height="1237"
    bbox="-1.18919 -233 1638 1434"
    underline-thickness="102"
    underline-position="-102"
    unicode-range="U+0020-25CA"
  />
<missing-glyph horiz-adv-x="1024" 
d="M102 1239v-1044l349 522zM164 102h696l-348 523zM573 717l349 -522v1044zM512 809l348 522h-696zM0 0v1434h1024v-1434h-1024z" />
    <glyph glyph-name=".notdef" horiz-adv-x="1024" 
d="M102 1239v-1044l349 522zM164 102h696l-348 523zM573 717l349 -522v1044zM512 809l348 522h-696zM0 0v1434h1024v-1434h-1024z" />
    <glyph glyph-name=".null" horiz-adv-x="0" 
 />
    <glyph glyph-name="nonmarkingreturn" horiz-adv-x="681" 
 />
    <glyph glyph-name="space" unicode=" " 
 />
    <glyph glyph-name="exclam" unicode="!" horiz-adv-x="1441" 
d="M1442 156q0 -31 -25 -56l-80 -80q-23 -24 -53 -24t-55 24l-535 537q-24 25 -24 55t24 52l535 538q23 23 55 23t53 -23l80 -80q25 -24 25 -54t-25 -54l-405 -408l405 -399q25 -20 25 -51zM615 0q-30 0 -56 23l-536 538q-23 23 -23 51t23 56l536 538q27 23 57 23t52 -23
l80 -80q22 -24 22 -56t-22 -52l-406 -408l406 -399q22 -23 22 -53t-22 -54l-80 -81q-23 -23 -53 -23z" />
    <glyph glyph-name="quotedbl" unicode="&#x22;" 
d="M1024 498q0 24 27 24h151q27 0 27 -24v-410q0 -27 -27 -27h-1175q-27 0 -27 27v410q0 24 27 24h151q27 0 27 -24v-232h819v232zM256 784h205v332q0 18 14 37q14 14 37 14h205q23 0 37 -14t14 -37v-332h205q20 0 25 -10t-11 -26l-336 -338q-16 -16 -37 -17q-25 4 -36 17
l-336 338q-14 14 -13 26q6 10 27 10z" />
    <glyph glyph-name="numbersign" unicode="#" 
d="M1044 -33q-29 0 -55 23l-534 538q-25 23 -25 53t25 54l534 539q54 46 111 0l80 -80q22 -27 22 -57t-22 -52l-408 -407l408 -400q45 -53 0 -106l-80 -82q-27 -23 -56 -23zM293 41q-1 -35 -21 -55t-55 -21l-113 -2q-34 0 -56 23t-21 55v1077q0 34 22 56t55 22l113 -2
q35 0 55 -20t21 -54v-1079z" />
    <glyph glyph-name="dollar" unicode="$" horiz-adv-x="1517" 
d="M809 152q76 -68 164 -68q89 0 159 66t70 159q0 92 -67 168q-74 66 -162 67t-164 -67q-66 -75 -67 -167t67 -158zM1354 300q0 -97 -62 -196l215 -219q24 -19 -1 -55t-54 -51q-14 -12 -28 -12t-23 12l-219 217q-92 -62 -193 -63q-173 -2 -289 110q-112 112 -111 271
q1 160 113 272t270 111t270 -113t112 -284zM0 92v27q0 373 111 411l262 111q55 29 73 72q-57 61 -73 131l-17 8q-31 80 -26 162l12 8q-10 109 18 162q27 47 84 79t113 33h29q55 -2 112 -34t85 -81q28 -50 18 -159l12 -8q4 -82 -27 -162l-16 -8q-17 -72 -72 -129
q-96 -66 -152 -170q-56 -103 -56 -227t55 -226h-545z" />
    <glyph glyph-name="percent" unicode="%" 
d="M1075 770q63 0 109 -45t45 -109q0 -64 -45 -108q-44 -45 -108 -45t-109 45t-45 108q0 62 45 108t108 46zM614 770q62 0 108 -45t46 -109t-45 -108q-45 -45 -109 -45t-108 45q-45 45 -45 108q0 62 45 108t108 46zM154 770q63 0 108 -45t45 -109t-45 -108q-45 -45 -108 -45
t-109 45q-45 45 -45 108t45 109q46 45 109 45z" />
    <glyph glyph-name="ampersand" unicode="&#x26;" 
d="M595 184q196 0 324 125t128 305q0 127 -68 232l-594 -594q103 -68 210 -68zM637 1044q-109 0 -189 -34q-158 -68 -229 -228q-33 -74 -33 -152q0 -139 68 -247l594 592q-102 69 -211 69zM615 1229q126 0 239 -48q225 -96 328 -327q47 -106 47 -240q0 -256 -178 -434
q-84 -84 -197 -132t-239 -48q-127 0 -241 49q-223 96 -325 326q-49 111 -49 239t49 240q101 230 325 326q114 49 241 49z" />
    <glyph glyph-name="quotesingle" unicode="'" 
d="M672 614h155q25 0 43 -18t19 -43v-61q-1 -25 -19 -43t-43 -19h-276q-27 0 -45 19q-16 20 -17 43v358q0 23 17 43q18 18 45 18h61q27 0 43 -17t17 -44v-236zM184 614q0 -88 35 -167q70 -157 227 -228q82 -35 169 -35t167 35q164 72 230 227q33 74 32 168q0 182 -124 304
q-58 57 -138 92q-164 71 -336 0q-157 -71 -227 -228q-35 -80 -35 -168zM1229 614q0 -126 -49 -240t-133 -196t-195 -130t-236 -48t-241 47q-111 49 -196 134t-132 195t-47 238t47 239q47 110 132 195t196 134q117 47 241 47t236 -48q111 -48 195 -130t133 -196t49 -241z" />
    <glyph glyph-name="parenleft" unicode="(" 
d="M688 338q0 22 -22 22h-125q-10 0 -17 -6q-8 -12 -8 -16v-121q0 -8 8 -16t17 -8h125q8 0 15 7t7 17v121zM666 403q22 0 22 23v39q0 33 21 51q17 22 39 40t58 55q36 38 48 79t12 85t-22 86t-56 65q-66 55 -168 55q-48 0 -79 -10t-74 -29q-33 -20 -39 -29q-16 -12 -16 -14
q-12 -12 -2 -29l73 -88q7 -15 33 -6q52 39 90 39t59 -17t21 -45t-18 -51q-30 -30 -84 -75q-68 -68 -68 -152v-49q0 -4 8 -16q6 -6 17 -7h125zM616 1229q125 0 239 -49q225 -97 327 -326q47 -113 47 -240q0 -126 -49 -240q-97 -225 -326 -327q-113 -47 -238 -47
q-126 0 -242 49t-194 131q-180 180 -180 434t180 435q78 82 194 131t242 49z" />
    <glyph glyph-name="parenright" unicode=")" 
d="M778 195q23 0 23 22v107q0 23 -23 22h-59v445q0 10 -7 17t-16 7h-233q-7 0 -15 -7t-8 -17v-107q0 -23 23 -22h65v-316h-59q-21 0 -23 -22v-107q0 -22 23 -22h309zM528 909q0 -10 8 -17t15 -7h145q8 0 16 7t7 17v127q0 23 -23 23h-145q-6 0 -16 -6q-6 -6 -7 -17v-127z
M614 1229q127 0 242 -49t193 -131q180 -180 180 -435q0 -254 -180 -434q-78 -82 -193 -131t-242 -49q-128 0 -242 49t-192 131q-180 180 -180 434t180 435q78 82 192 131t242 49z" />
    <glyph glyph-name="asterisk" unicode="*" 
d="M750 78q0 -34 -25 -56t-53 -22h-113q-33 0 -55 23t-23 53v307l-266 -154q-27 -14 -59 -6t-45 35l-58 98q-34 62 29 105l266 153l-266 154q-29 18 -36 48t7 56l58 99q14 27 46 35t58 -7l266 -153v307q0 31 23 53t55 23h113q30 0 54 -23t24 -53v-307l264 153q28 13 58 7
t46 -35l56 -99q16 -28 9 -58t-34 -46l-268 -154l268 -153q27 -16 34 -47t-7 -58l-58 -98q-14 -27 -46 -35t-58 6l-264 154v-305z" />
    <glyph glyph-name="plus" unicode="+" horiz-adv-x="1536" 
d="M586 184q55 19 91 -15t23 -99q-8 -29 -51 -40t-76 7q-35 25 -38 61q-59 -37 -99 -8q-59 45 -47 98q-39 -18 -70 -6t-41 44q-11 32 1 59q-25 -10 -48 -9h-12q-33 8 -50 42t-9 67q6 33 37 59t63 18q32 -7 48 -37q17 -30 11 -63q19 23 53 29t58 -8q43 -23 31 -92
q20 25 52 30t60 -16q45 -39 13 -121zM1096 208q0 -29 -27 -58t-69 -29t-76 24l4 -18q10 -25 -17 -59t-63 -35q-36 0 -57 10l-19 12v4q14 45 1 99t-45 74q-32 18 -56 20q6 82 -56 121q-37 20 -69 20l-23 -2q-12 37 -49 62q-33 16 -58 16t-44 -6q-42 78 -107 78t-104 -43
q-15 60 -40 91q-24 29 -71 63t-50 52t7 56l119 340q23 57 89 19q28 -16 108 -52q-43 -90 -60 -254q-6 -37 17 -65q31 -43 90 -43t98 16q73 30 143 170l2 2l168 2q158 -86 248 -127q39 -18 205 -143q102 -81 135 -95q80 -72 33 -135q-20 -33 -70 -33l-57 11l-19 6l11 -17
q33 -51 -8 -92q-68 -60 -173 -4l7 -18l2 -24v-16zM799 975q-176 0 -226 -6q-8 0 -32 -45q-55 -113 -101 -131q-28 -11 -58 -11t-40 13v6q0 27 22 135t54 137q66 57 172 76q18 3 122 29t148 26l25 -2q147 -43 189 -50t100 -33q59 -25 75 -25t105 36l2 3q18 8 37 -4t24 -27v-4
l115 -357l4 -30q-4 -23 -25 -37q-92 -57 -104 -76q-17 8 -155 112t-185 128q-136 65 -219 112l-45 23l-2 2h-2z" />
    <glyph glyph-name="comma" unicode="," 
d="M229 612q0 28 23 56l536 538q23 23 53 23t56 -23l80 -80q23 -26 23 -56t-23 -52l-406 -408l406 -399q45 -52 0 -107l-80 -81q-27 -23 -57 -23t-52 23l-536 538q-23 23 -23 51z" />
    <glyph glyph-name="hyphen" unicode="-" horiz-adv-x="1355" 
d="M1006 53q12 0 12 15v73q0 15 -12 15h-80q-15 0 -15 -15v-73q0 -15 15 -15h80zM1006 184q12 0 12 15v24q0 25 40 57q10 8 27 25l21 27q14 17 16 35q8 16 8 57t-49 86q-47 33 -100 33q-74 0 -135 -49q-6 -10 -2 -19l47 -55q0 -6 8 -6t12 2l4 4q32 20 52 20q21 0 35 -11
t14 -32t-41 -55l-23 -20q-38 -38 -41 -93v-30q0 -15 15 -15h80zM1356 315q0 -79 -29 -149t-84 -123t-123 -82t-148 -29t-146 28t-122 82t-83 124q-31 70 -31 148q0 157 112 272q113 112 271 112q158 -1 270 -112q113 -113 113 -271zM0 92v27q0 371 111 413l262 111
q59 27 73 70q-57 66 -73 131l-17 10q-31 80 -26 160l12 10q-6 117 20 163t83 78q58 32 114 31h27q55 0 113 -32t85 -82q27 -51 17 -158l12 -10q4 -80 -25 -160l-16 -10q-21 -68 -74 -129q-96 -66 -152 -170q-56 -103 -56 -225t55 -228h-545z" />
    <glyph glyph-name="period" unicode="." 
d="M388 0q-30 0 -56 23l-80 81q-23 27 -23 54t23 53l405 399l-405 408q-23 22 -23 52t23 56l80 80q26 23 56 23t52 -23l537 -538q23 -28 23 -56t-23 -51l-537 -538q-22 -23 -52 -23z" />
    <glyph glyph-name="slash" unicode="/" 
d="M268 618q0 30 23 52l538 536q37 37 83 17t49 -70v-1075q1 -53 -53 -73q-44 -17 -79 18l-538 538q-23 27 -23 57z" />
    <glyph glyph-name="zero" unicode="0" 
d="M1208 831q0 -34 -37 -59l-499 -223q-53 -25 -97 -25q-80 0 -79 86q-14 -57 -66 -98q31 -18 31 -37v-39q0 -18 -23 -33l64 -165q43 0 75 -36t44 -83v-80q-2 -39 -41 -39h-514q-34 0 -39 29l-2 10v80q4 39 37 74t69 45h12l64 165q-23 14 -23 33v39q0 20 33 37
q-74 53 -74 134q1 81 53 133t127 52t127 -52t52 -126q0 -4 -1 -13t-1 -13q10 41 35 55q55 32 151 102t84 93q-16 35 -51 61t-66 25l-157 -2q-72 0 -199 -56l-43 -18q-121 -150 -172 -152q-18 -3 -36 13t-26 40q-6 24 31 95q37 70 80 120t156 107l39 18q181 101 407 101
q150 0 420 -53q45 -7 55 -56v-289z" />
    <glyph glyph-name="one" unicode="1" 
d="M215 127q0 47 94 82q-45 29 -45 61q-2 16 8 42t98 57t101 55q33 63 51 356q-82 8 -110 20t-29 34q0 22 16 34t74 21l21 4q-64 57 -64 131q-1 141 115 190q29 14 69 14q95 1 153 -83q32 -47 32 -122t-66 -130q16 -4 48 -8q63 -8 65 -51q0 -23 -29 -34t-110 -20
q18 -293 51 -356q14 -23 70 -42t100 -45t38 -64q-5 -38 -46 -64q94 -35 94 -82q0 -23 -33 -51t-115 -47h-2q-4 -2 -6 -2q-111 -27 -244 -27t-243 27q-2 0 -6 2h-3q-81 20 -114 48t-33 50z" />
    <glyph glyph-name="two" unicode="2" 
d="M606 373q94 0 94 -72q0 -66 -86 -65q-96 0 -96 94h-121q-5 -98 57 -150t155 -51q93 0 158 44t65 136t-93 113v2q35 6 56 37q20 31 20 67q0 76 -59 112q-58 36 -144 36t-142 -47t-58 -133h120q0 76 84 75q33 0 55 -15t21 -40q0 -55 -86 -55l-35 2v-92q12 2 35 2zM59 805
h1110v-717q1 -36 -25 -62t-63 -26h-936q-35 0 -61 26t-25 62v717zM987 1110h94q37 0 63 -26t25 -62v-164h-1110v164q0 36 26 62t60 26h88v-88q0 -36 25 -60q26 -24 60 -24t59 25t24 59v88h418v-88q0 -36 25 -60q26 -24 60 -24t59 25t24 59v88zM903 973q-20 0 -35 14
q-14 14 -14 35v158q0 20 14 34t34 14t36 -14q14 -14 14 -34v-158q0 -20 -14 -35q-15 -14 -35 -14zM317 973q-20 0 -34 14t-15 35v158q0 20 14 34t35 14t35 -14t15 -34v-158q0 -20 -15 -34t-35 -15z" />
    <glyph glyph-name="three" unicode="3" 
d="M653 836l31 -371l-70 -62l-59 62l29 371h69zM614 119q168 0 287 119q119 118 119 286t-119 287t-287 119t-286 -119t-119 -287q1 -168 119 -286t286 -119zM688 1092v-50q193 -27 322 -174t129 -354q0 -206 -154 -360t-371 -154q-216 0 -370 154t-154 360t129 354
q129 147 322 174v50h-86v137h319v-137h-86z" />
    <glyph glyph-name="four" unicode="4" 
d="M526 0q-34 0 -37 31q0 4 3 6l133 598q-6 -4 -39 -12t-47 -14t-62 -15l-63 -19q-46 -16 -76 -16q-29 0 -29 31q0 4 2 6l135 608q2 8 10 16t21 9h223q14 0 22 -9q8 -10 9 -18q0 -8 -2 -10v-8l-119 -342l31 8q16 8 53 14l62 19q53 14 61 16l49 12l25 4q27 0 29 -30
q0 -8 -2 -13l-369 -854q-5 -18 -23 -18z" />
    <glyph glyph-name="five" unicode="5" horiz-adv-x="1433" 
d="M942 999q70 1 188 -67t211 -161t93 -157t-92 -156q-92 -93 -212 -161q-119 -68 -188 -68v562q90 -3 169 -21t114 -37l35 -18q-52 68 -150 131t-168 69v84zM877 999v-81h-568v-414h568v-275h-582q-23 0 -35 3q-31 8 -33 63v20q0 19 -13 33q-12 14 -28 14q-23 0 -51 -67
l-6 -25q-16 -41 -53 -41q-36 -1 -56 19t-20 47v639q0 27 19 46t57 19t53 -41q27 -92 49 -92t36 14t13 33l68 86h582z" />
    <glyph glyph-name="six" unicode="6" horiz-adv-x="1433" 
d="M651 614v-260h131v260h-131zM1303 874h-129v-520h129v520zM260 874h-129v-260h129v260zM1434 1006v-783h-392v783h392zM651 874v-129h260v-522h-389v783h389v-132h-260zM391 1006v-783h-391v131h260v129h-260v523h391z" />
    <glyph glyph-name="seven" unicode="7" 
d="M713 338h-205v-201h205v201zM940 844q0 90 -79 169t-233 79t-241 -90q-86 -90 -90 -232h192q0 74 33 122t101 48q113 0 112 -119q0 -50 -27 -79q-27 -28 -69 -62q-106 -84 -113 -205v-59h176v51q4 30 23 58t35 41q16 14 21 18t25 17q72 49 103 101t31 142zM623 1229
q206 0 330 -116t124 -273q0 -121 -44 -196t-120 -134l-24 -16q-43 -31 -51 -43v-314q0 -57 -39 -97t-97 -40h-176q-57 0 -97 40t-40 97v338q6 84 37 158h-129q-57 0 -98 41q-39 43 -39 98q4 201 130 329t333 128z" />
    <glyph glyph-name="eight" unicode="8" 
d="M911 907v-434l-143 143l-367 -366l-149 147l369 367l-146 143h436zM1167 614h-174v375h-379v178h-551v-553h293l-219 -217l264 -264l213 215v-285h553v551zM1229 1229v-1229h-1229v1229h1229z" />
    <glyph glyph-name="nine" unicode="9" 
d="M760 125l-6 82h-275l-10 -82h291zM1188 0h-1147v76l104 325h953l90 -325v-76zM1032 1161h-821v-641h821v641zM1098 453h-953v776h953v-776z" />
    <glyph glyph-name="colon" unicode=":" 
d="M616 1229q220 0 392 -146l125 125q27 27 46 19t19 -43v-357q0 -25 -18 -43q-21 -16 -43 -16h-355q-37 0 -46 17t20 44l121 123q-51 45 -120 69q-155 54 -309 -12t-229 -227q-33 -78 -33 -170q0 -174 127 -301q59 -57 139 -92t160 -35q167 0 287 107q55 47 95 118t48 146
q7 29 35 29l121 -17q33 -4 29 -35q-15 -106 -69 -205t-136 -175q-177 -152 -406 -152q-124 0 -240 49t-194 131q-180 180 -180 434q0 252 177 434q83 85 196 133t241 48z" />
    <glyph glyph-name="semicolon" unicode=";" 
d="M0 614h356v-555h-356v555zM436 891h357v-832h-357v832zM1229 1169v-1110h-357v1110h357z" />
    <glyph glyph-name="less" unicode="&#x3c;" 
d="M615 227q-30 0 -56 23l-536 541q-23 23 -23 53t23 51l79 82q25 25 56 25t53 -25l405 -406l402 406q22 25 54 25t52 -25l80 -82q25 -23 25 -53t-23 -51l-538 -541q-23 -23 -53 -23z" />
    <glyph glyph-name="equal" unicode="=" 
d="M70 547h1091q27 -1 47 -21t21 -49v-102q0 -29 -21 -47q-18 -20 -47 -21h-1091q-30 -1 -50 19t-20 49v102q0 29 20 49t50 21zM1229 750q-1 -28 -21 -48t-47 -20h-1091q-29 0 -50 20q-20 20 -20 48v104q0 29 19 48t51 20h1091q29 -1 48 -20t20 -48v-104z" />
    <glyph glyph-name="greater" unicode="&#x3e;" 
d="M1229 387q0 -31 -25 -53l-80 -82q-24 -25 -54 -25t-52 25l-402 405l-405 -405q-23 -25 -53 -25t-56 25l-79 82q-23 22 -23 52t23 52l536 541q27 23 57 23t52 -23l538 -541q23 -20 23 -51z" />
    <glyph glyph-name="question" unicode="?" 
d="M1153 958q49 0 69 -46t-16 -85l-536 -534q-25 -23 -56 -23t-55 23l-534 534q-39 37 -17 84q18 47 72 47h1073z" />
    <glyph glyph-name="at" unicode="@" 
d="M1202 41q0 -33 -22 -55t-56 -23l-112 2q-36 1 -56 21t-20 55v1079q0 34 20 54t56 20l112 2q33 1 56 -22t22 -56v-1077zM799 580q0 -30 -25 -52l-534 -538q-27 -23 -56 -23t-55 23l-80 82q-45 53 0 106l408 400l-408 407q-49 49 0 109l80 80q27 23 55 23t56 -23l534 -539
q25 -25 25 -55z" />
    <glyph glyph-name="A" unicode="A" 
d="M686 897q46 0 108 -27t105 -69l231 -236q43 -37 71 -102t28 -135t-27 -125q-51 -129 -176 -176q-59 -27 -128 -27q-134 0 -234 98q-2 2 -8 6t-9 9l-20 18q-23 31 -23 43q0 22 29 29l67 18l78 29q8 0 21 -8q41 -41 98 -41t94 39t37 96t-47 102q-17 20 -37 38t-49 46
l-137 137q-43 39 -86 39t-64 -14q-25 -12 -36 -12q-28 0 -111 96q-17 23 -17 38t29 34q110 57 213 57zM0 897q0 61 27 129q61 132 176 176q55 27 125 27t134 -28t103 -68l17 -17q28 -21 36 -39q17 -17 -2 -43q-2 -4 -47 -15t-64 -20q-18 -8 -42 -14q-4 -4 -13 -4t-18 8
l-24 17q-32 24 -84 24t-84 -39q-39 -39 -39 -96t47 -102q16 -23 41 -42t45 -44l139 -136q29 -36 77 -38q48 -1 70 11t34 13q11 0 34 -16l43 -37q23 -20 37 -43q16 -18 16 -38t-22 -33q-22 -12 -62 -28t-74 -23q-36 -7 -84 -7t-108 26t-102 70l-234 236q-46 44 -72 108
t-26 125z" />
    <glyph glyph-name="B" unicode="B" 
d="M1112 246q0 -23 -20 -43l-64 -66q-18 -18 -44 -18t-44 18l-326 326l-325 -326q-18 -18 -43 -18t-43 18l-66 64q-18 18 -18 44t18 44l330 329l-330 322q-18 18 -18 44t18 44l66 64q20 20 45 20t41 -20l325 -326l326 326q20 20 44 20t44 -20l64 -64q20 -20 20 -44t-20 -44
l-328 -330l328 -321q20 -20 20 -43z" />
    <glyph glyph-name="C" unicode="C" 
d="M1229 718q0 -30 -23 -56l-327 -328q-33 -35 -60 -25q-25 10 -24 58v221q-345 -8 -531 -137q-90 -59 -143 -147t-66 -179q-2 -23 -24 -23h-2q-23 0 -25 23q-4 45 -4 68q0 137 49 263q100 258 391 359q150 55 355 55v197q-1 47 23 56t61 -23l327 -328q23 -24 23 -54z" />
    <glyph glyph-name="D" unicode="D" 
d="M686 758q0 31 8 43t50 12q43 0 85 -12q24 0 31 22l19 131q4 25 -21 27q-68 20 -149 20q-242 0 -242 -235v-68h-82q-29 0 -25 -24v-135q0 -9 8 -17t17 -8h82v-514h-313q-66 0 -99 36q-55 60 -55 118v921q0 58 45 109q45 45 109 45h921q66 0 110 -45t44 -109v-921
q0 -66 -45 -109q-36 -45 -109 -45h-389v514h139q25 0 25 25l8 133q0 26 -24 26h-148v60z" />
    <glyph glyph-name="E" unicode="E" 
d="M827 422v-92h-383v30l185 273q55 84 55 139q0 66 -70 66t-106 -64l-70 55q18 41 62 69t120 28q74 0 121 -41q51 -39 51 -111t-65 -170l-119 -182h219zM1075 614q0 190 -135 326t-327 135q-191 0 -325 -135q-134 -136 -134 -326t134 -325t324 -135q192 0 328 135
q135 135 135 325zM614 1229q254 0 434 -180q180 -181 181 -435q0 -254 -180 -434q-181 -180 -435 -180t-434 180t-180 434t180 434t434 181z" />
    <glyph glyph-name="F" unicode="F" horiz-adv-x="1675" 
d="M460 504q28 0 54 8q-88 16 -145 87t-58 163q51 -27 115 -31q-113 76 -113 209q0 72 35 129q94 -117 230 -187t288 -77q-6 27 -6 57q0 104 74 178t182 74t180 -80q82 16 162 62q-32 -93 -112 -140q82 10 145 39q-47 -74 -125 -129v-32q0 -262 -183 -485
q-87 -105 -227 -170t-307 -64q-209 0 -387 112l60 -2q180 0 313 109q-80 0 -146 49t-90 125q33 -4 61 -4z" />
    <glyph glyph-name="G" unicode="G" horiz-adv-x="1351" 
d="M506 154q-26 0 -56 13t-42 28l-381 380q-17 20 -17 43t17 39l127 127q16 16 41 17q27 -4 38 -17l265 -264q16 -16 42 -16t40 16l538 539q16 16 41 16t41 -16l125 -127q16 -14 16 -40t-16 -40l-657 -657q-12 -13 -43 -27t-54 -14h-65z" />
    <glyph glyph-name="H" unicode="H" horiz-adv-x="1361" 
d="M682 766q47 0 92 -16q141 -75 144 -220q0 -90 -68 -165q-70 -70 -168 -70q-102 -1 -169 73q-34 38 -46 72q-21 41 -21 91t21 92q27 79 125 127q43 16 90 16zM928 776q-47 47 -113 75q-67 28 -133 28t-132 -28q-137 -58 -185 -185q-29 -62 -29 -134t29 -135
q23 -59 73 -110q99 -103 245 -103t245 103q100 96 100 241q0 146 -100 248zM1266 1004q35 0 59 -25q23 -27 23 -59v-777q0 -33 -23 -59q-25 -25 -59 -25h-1166q-36 0 -60 25t-24 59v777q0 36 25 60t59 24h265l41 90q16 35 49 53q35 23 67 22h320q34 0 68 -21t51 -54l40 -90
h265z" />
    <glyph glyph-name="I" unicode="I" 
d="M883 31v133h-160q-78 0 -153 40t-117 93l-95 135q87 22 138 84l12 14l47 -75q92 -113 168 -113h160v152q0 33 19 39t48 -17l262 -219q16 -13 16 -33t-16 -37l-262 -217q-29 -24 -48 -18t-19 39zM207 526h-174q-33 0 -33 29v119q0 33 33 33h174q59 0 149 90q6 6 51 60
q44 54 82 94q39 40 105 77t129 37h160v133q0 33 19 39t48 -18l262 -218q16 -17 16 -37t-16 -32l-262 -219q-29 -23 -48 -17t-19 39v152h-156q-39 0 -71 -25q-32 -26 -95 -104t-103 -121t-109 -77t-142 -34z" />
    <glyph glyph-name="J" unicode="J" 
d="M1153 614q0 -30 -27 -49l-968 -557q-10 -8 -26 -8t-36 11q-21 11 -20 44v1116q0 33 26 48q31 23 56 0l968 -555q27 -20 27 -50z" />
    <glyph glyph-name="K" unicode="K" 
d="M1174 1229q22 -1 38 -17t17 -38v-1119q-1 -23 -17 -39t-38 -16h-392q-20 0 -41 16q-16 16 -16 39v1119q0 22 18 38t39 17h392zM446 1229q20 -1 38 -17t20 -38v-1119q0 -23 -18 -39t-40 -16h-391q-23 0 -39 16t-16 39v1119q0 22 16 38t39 17h391z" />
    <glyph glyph-name="L" unicode="L" 
d="M610 1229q127 0 241 -48t193 -132q80 -80 130 -193t51 -242q0 -130 -50 -242t-131 -192q-78 -82 -194 -133q-117 -47 -235 -47q-233 0 -410 152q-175 163 -205 380q-4 31 27 35l123 17q8 0 22 -6q8 -6 12 -23q16 -153 142 -264q128 -107 294 -107t293 127q57 57 93 136
q73 161 0 335q-72 161 -230 228q-150 66 -305 10q-68 -20 -123 -68l123 -123q29 -27 19 -44t-46 -17h-356q-14 0 -22 4l-19 12q-18 18 -18 43v357q0 33 18 43t47 -19l123 -125q178 146 393 146z" />
    <glyph glyph-name="M" unicode="M" 
d="M0 737q0 153 152 228h4v-719q0 -39 28 -66t62 -26h719v-2q-78 -152 -228 -152h-491q-53 0 -94 20q-47 18 -78 54q-74 74 -74 172v491zM1229 1184v-379q0 -18 -12 -35q-16 -12 -33 -12h-68q-16 0 -35 14q-12 12 -12 33v131l-373 -371q-12 -12 -30 -12t-35 12l-64 66
q-12 13 -12 33t12 32l371 373h-133q-20 0 -33 12q-12 12 -12 33v70q-2 18 11 31t34 14h379q19 -1 32 -14t13 -31zM1192 614q18 0 37 7v-129q0 -52 -21 -96q-43 -90 -129 -132q-47 -18 -96 -18h-491q-102 0 -175 71q-35 37 -51 80q-20 41 -20 95v491q0 94 71 174q33 33 80 51
q41 20 95 21h129q0 -6 -5 -23v-94q0 -25 5 -37h-129q-37 -1 -64 -27t-27 -65v-491q0 -39 27 -66t64 -27h491q35 0 66 27q27 27 26 66v129l23 -5l22 -2h72z" />
    <glyph glyph-name="N" unicode="N" 
d="M936 135v113h-135q-85 0 -160 51q-64 48 -123 125q20 25 32 46l50 81q4 2 8 10q43 -63 90 -110t103 -48h135v125q0 31 16 33q16 6 39 -12l223 -184q14 -13 14 -31t-14 -31l-223 -186q-25 -21 -40 -15t-15 33zM27 817q-27 0 -27 25v102q0 27 27 27h145q49 0 84 -15
q95 -29 199 -161q-8 -13 -36 -55t-37 -57t-11 -17t-6 -11q-49 72 -95 117t-98 45h-145zM0 375q0 24 27 24h145q86 0 188 156q41 61 101 157t113 148q53 53 106 82t121 29h135v123q0 26 15 32t40 -14l223 -184q14 -12 14 -30t-14 -32l-223 -186q-23 -18 -39 -12t-16 32v115
h-135q-66 0 -135 -83t-115 -167l-76 -114q-37 -53 -84 -105q-43 -43 -100 -72q-49 -29 -119 -28h-145q-27 0 -27 24v105z" />
    <glyph glyph-name="O" unicode="O" 
d="M614 805q162 0 277 -115q115 -114 115 -276t-115 -277t-277 -115t-276 116q-114 114 -115 276q1 162 115 276t276 115zM1055 1206v-245l-144 -158q-86 66 -190 88l-49 209l63 106h320zM614 903q-180 0 -315 -115l-125 177v241h320q113 -201 184 -307q-41 4 -64 4z" />
    <glyph glyph-name="P" unicode="P" 
d="M1229 472q0 -9 -8 -15l-54 -56q-6 -6 -16 -6t-16 6l-125 125l-127 -125q-7 -6 -17 -6t-16 6l-53 54q-9 12 -9 17t9 17l127 127l-127 123q-9 11 -9 17t9 18l53 53q15 15 35 0l125 -125l125 125q6 7 16 7t16 -7l54 -53q8 -8 8 -17t-8 -18l-125 -127l125 -123q8 -8 8 -17z
M0 760q0 29 31 31h280l252 249q37 41 64 29q27 -8 26 -65v-779q0 -57 -26 -65q-25 -12 -64 28l-252 250h-280q-31 0 -31 31v291z" />
    <glyph glyph-name="Q" unicode="Q" 
d="M426 915q-8 0 -20 -8l-84 -86q-18 -18 0 -37l167 -168l-184 -188q-8 -6 -8 -17t8 -20l88 -88q5 -8 17 -8t18 8l188 186l168 -170q12 -8 18 -8t19 8l86 89q18 16 0 34l-170 168l189 191q16 16 0 37l-90 88q-18 18 -35 0l-189 -189l-170 170q-8 8 -16 8zM1229 614
q0 -122 -46 -236t-135 -201q-181 -177 -435 -177q-253 0 -433 180q-180 176 -180 434q0 254 180 435q180 180 434 180t435 -180q88 -84 134 -199t46 -236z" />
    <glyph glyph-name="R" unicode="R" 
d="M811 507q0 -93 -56 -139q-55 -46 -149 -46t-153 57l51 80q45 -49 100 -49q100 0 101 94q0 42 -29 68t-78 26h-18v86h14q90 0 90 77t-84 77q-43 0 -84 -41l-49 71q16 20 59 41q43 16 80 17q184 0 186 -158q0 -78 -73 -125q92 -43 92 -136zM614 154q190 0 326 135
q135 135 135 325t-135 326q-136 136 -326 135q-190 0 -325 -135q-135 -136 -135 -326t135 -325t325 -135zM614 1229q254 0 434 -180q180 -181 181 -435q0 -254 -180 -434q-181 -180 -435 -180t-434 180t-180 434t180 434t434 181z" />
    <glyph glyph-name="S" unicode="S" horiz-adv-x="1368" 
d="M940 866q31 0 31 -32l-13 -160q0 -29 -30 -29h-162v-614q0 -31 -31 -31h-203q-12 0 -21 9t-9 22v614h-99q-10 0 -20 10t-10 21v160q0 12 9 21t21 9h99v82q0 281 286 281q96 0 183 -25q27 -6 22 -33l-20 -155q-5 -33 -49 -24q-45 9 -92 9q-46 0 -56 -13t-10 -52v-70h174z
" />
    <glyph glyph-name="T" unicode="T" 
d="M614 1229q254 0 434 -180q180 -181 181 -435q0 -254 -180 -434q-181 -180 -435 -180t-434 180t-180 434t180 434t434 181z" />
    <glyph glyph-name="U" unicode="U" 
d="M860 614q0 119 -65 232q-25 45 28 77q56 31 80 -16q80 -141 80 -293t-80 -292q-24 -47 -79 -16q-55 30 -29 77q65 112 65 231zM0 760q0 29 31 31h280l252 249q37 41 64 29q27 -8 26 -65v-779q0 -57 -26 -65q-25 -12 -64 28l-252 250h-280q-31 0 -31 31v291zM1106 614
q0 201 -109 375q-30 43 23 77t82 -11q127 -199 127 -441q0 -243 -127 -440q-29 -48 -82 -13t-23 79q109 173 109 374z" />
    <glyph glyph-name="V" unicode="V" 
d="M748 748h405q31 0 53 -23t23 -53v-115q0 -31 -23 -53t-53 -23h-405v-405q0 -32 -23 -54t-53 -22h-115q-31 0 -53 23t-23 53v405h-403q-31 0 -55 21q-23 23 -23 55v115q0 32 23 54t53 22h405v403q0 33 23 55q18 23 53 23h115q32 0 54 -23t22 -53v-405z" />
    <glyph glyph-name="W" unicode="W" 
d="M674 918v-588h-105v422l-118 -72v100q115 55 180 138h43zM614 154q190 0 326 135q135 135 135 325t-135 326q-136 136 -326 135q-190 0 -325 -135q-135 -136 -135 -326t135 -325t325 -135zM614 1229q254 0 434 -180q180 -181 181 -435q0 -254 -180 -434
q-181 -180 -435 -180t-434 180t-180 434t180 434t434 181z" />
    <glyph glyph-name="X" unicode="X" 
d="M1126 307q0 -84 -61 -143q-52 -60 -143 -62h-717q-93 0 -146 62q-59 59 -59 143v615q0 86 59 145t146 59h557q-4 -29 -4 -43v-32q-117 -16 -207 -54h-346q-31 0 -53 -21t-23 -54v-615q0 -33 23 -53q20 -23 53 -23h717q33 0 53 23q23 20 22 53v74q24 10 43 33l86 84v-191z
M256 360v27q0 229 154 379q171 158 475 158v153q0 37 18 47q20 8 47 -18l262 -260q16 -20 16 -45t-16 -41l-262 -262q-27 -27 -47 -19q-18 8 -18 47v172q-270 0 -420 -106q-140 -90 -166 -258q-3 -18 -23 -18t-20 44z" />
    <glyph glyph-name="Y" unicode="Y" 
d="M113 969l239 -891q6 -23 -6 -43q-12 -21 -35 -27t-43 6t-26 35l-240 891q-6 23 6 43q12 21 35 27t43 -6t27 -35zM557 1110l168 -4q100 -4 188 20t158 97l55 -205q8 -31 24 -90t24 -90l55 -205q-72 -75 -156 -97t-190 -22l-166 6q-106 0 -190 -20t-156 -97q0 15 -9 33
q-10 38 -32 114t-36 138q-15 62 -26 98l-55 207q70 73 155 95t189 22z" />
    <glyph glyph-name="Z" unicode="Z" 
d="M926 971l147 -148l-432 -434l-221 -72l72 220zM1108 1126q27 0 41 -18l61 -59q18 -20 18 -46t-18 -45l-63 -61l-148 147l62 64q20 18 47 18zM1126 307q0 -82 -59 -142t-145 -63h-717q-86 0 -146 60q-59 67 -59 145v615q0 127 125 188q39 16 80 16h717l6 -2h6l-127 -127
h-602q-31 0 -53 -21t-23 -54v-615q0 -33 23 -53q20 -23 53 -23h717q32 0 54 23t21 53v295l129 129v-424z" />
    <glyph glyph-name="bracketleft" unicode="[" 
d="M2 616q0 30 23 52l536 538q23 23 53 23t56 -23l80 -80q22 -22 22 -54t-22 -54l-271 -270h674q33 0 55 -23t21 -53v-115q1 -31 -21 -53t-55 -23h-674l271 -270q22 -20 22 -53t-22 -56l-80 -79q-27 -23 -57 -23t-52 23l-536 536q-23 27 -23 57z" />
    <glyph glyph-name="backslash" unicode="\" 
d="M270 1153q0 49 45 70q47 18 84 -17l539 -536q23 -20 23 -54t-23 -55l-539 -538q-35 -35 -82 -16t-47 71v1075z" />
    <glyph glyph-name="bracketright" unicode="]" 
d="M613 0q-30 0 -52 23l-80 79q-23 23 -22 56q0 33 22 53l271 270h-676q-31 -1 -52 21t-22 55v115q0 32 22 54t54 22h674l-271 270q-23 22 -23 54t23 54l80 80q23 23 53 23t56 -23l536 -538q23 -22 23 -52t-23 -57l-536 -536q-27 -23 -57 -23z" />
    <glyph glyph-name="asciicircum" unicode="^" horiz-adv-x="1691" 
d="M1114 883v-293h-96v293h96zM846 883v-293h-98v293h98zM1286 1079h-807v-710h219v-146l148 146h268l172 172v538zM1384 1178v-686l-294 -293h-220l-147 -148h-148v148h-268v782l74 197h1003z" />
    <glyph glyph-name="underscore" unicode="_" 
d="M1229 1014v-551q6 -25 -14 -46q-21 -21 -56 -22h-764v-202q-1 -29 -27 -41t-46 8l-310 309q-12 13 -12 31t12 30l310 308q20 20 47 8t26 -39v-203h627v400q0 33 16 52t33 21l16 4h72q29 0 49 -18q21 -18 21 -49z" />
    <glyph glyph-name="grave" unicode="`" horiz-adv-x="1945" 
d="M1280 614l-500 260v-522zM1638 671v-81q0 -262 -30 -350t-103 -103q-63 -14 -532 -14t-521 11t-78 45q-47 61 -57 164t-10 183v113q0 263 28 339q34 99 119 117q52 11 520 11t519 -11t78 -45t40 -72t19 -107q8 -92 8 -200z" />
    <glyph glyph-name="a" unicode="a" 
d="M592 811q-5 32 23 60t67 28t59 -27q17 -18 23 -45t-2 -45q30 8 52 3q61 -14 65 -87q0 -34 -25 -61q-31 -27 -65 -27q-35 0 -57 22q-46 46 -23 95q-19 -8 -47 -3t-51 32t-19 55zM500 785q0 -65 55 -138l-283 -285q-16 -12 -16 -33t16 -37t38 -18q22 0 34 17l88 88l49 -51
l-37 -35q-4 -4 -4 -12t4 -13l25 -24q6 -6 14 -6t11 6l122 121q4 4 5 12q0 8 -5 12l-24 25q-6 6 -14 6t-11 -6l-37 -37l-49 51l148 145q69 -55 155 -55q83 -4 138 51q29 29 42 73q25 84 -20 175q-20 43 -59 82q-123 123 -262 82q-41 -12 -72 -43q-27 -24 -39 -56t-12 -97z
M180 1229h869q76 0 128 -52t52 -128v-869q0 -76 -52 -128t-128 -52h-869q-76 0 -128 52t-52 128v869q0 76 52 128t128 52z" />
    <glyph glyph-name="b" unicode="b" 
d="M598 1262h31q59 0 121 -34t91 -88q30 -54 19 -173l12 -9q6 -82 -26 -174l-19 -10q-20 -76 -79 -139q18 -47 79 -76l281 -121q121 -43 121 -442l-2 -29h-1227v29q0 399 119 442l280 121q61 29 80 76q-59 63 -80 139l-18 10q-33 92 -27 174l13 9q-10 119 20 176
q29 51 90 85t121 34z" />
    <glyph glyph-name="c" unicode="c" 
d="M1229 569q0 -88 -53 -163q-49 -74 -144 -125q15 -68 31 -92t32 -39q15 -15 18 -19t2 -17t-23 -12q-16 4 -27 4l-27 7q-98 19 -215 98q-8 -2 -22 -2l-72 -4q-177 0 -313 84l18 8q20 -2 66 -2q259 0 426 135q76 58 125 144t49 188q0 16 -4 53q133 -106 133 -246zM695 425
q-87 -28 -166 -28t-123 6q-94 -72 -216 -100q-8 -4 -26 -4q-33 -8 -41 0q-8 4 -8 10v2q-4 10 2 13q2 4 22 22t31 40q10 21 27 85q-90 49 -144 125q-53 78 -53 161q0 160 150 265q150 106 353 105q204 -1 349 -106t145 -258q0 -154 -145 -259q-70 -51 -157 -79z" />
    <glyph glyph-name="d" unicode="d" 
d="M719 436q0 49 -31 80t-74 31q-44 0 -74 -31t-30 -82t51 -80l-51 -225h209l-51 223q51 35 51 84zM860 676v123q0 49 -18 96q-50 97 -133 129q-41 20 -95 20q-95 0 -174 -71q-29 -29 -53 -78q-18 -47 -18 -96v-123h491zM1106 584v-492q0 -35 -27 -65q-31 -27 -65 -27h-799
q-35 0 -65 27q-27 27 -27 65v492q0 27 16 53q18 25 45 33v129q0 178 125 303q55 57 135 92t170 35q177 0 304 -127q128 -127 126 -303v-129q27 -8 46 -33q16 -27 16 -53z" />
    <glyph glyph-name="e" unicode="e" horiz-adv-x="1351" 
d="M193 562q0 -5 -3 -7h269l92 -164h264l94 164h252v8q0 2 -2 4v2l-205 475h-555l-204 -475q-2 -2 -2 -7zM1352 61q0 -25 -18 -43t-44 -18h-1227q-27 0 -45 18t-18 43v463q0 61 25 119l227 531q10 22 37 38t49 17h676q24 -1 50 -17t36 -38l227 -531q23 -59 25 -119v-463z
" />
    <glyph glyph-name="f" unicode="f" 
d="M1024 461h160q35 0 43 -21q10 -18 -19 -47l-245 -272q-16 -19 -41 -19t-41 19l-246 272q-29 29 -19 47q6 20 43 21h160v434h-110q-5 4 -11 14t-8 13l-162 178h445q23 0 37 -16t14 -35v-588zM410 332h110q4 -4 8 -12t13 -13l159 -180h-444q-20 0 -36 15t-15 36v590h-160
q-35 0 -44 19t19 49l246 272q18 18 42 18t40 -18l246 -272q29 -29 18 -48q-6 -20 -43 -20h-159v-436z" />
    <glyph glyph-name="g" unicode="g" 
d="M614 0q-34 0 -62 23t-34 57l187 -21q-30 -59 -91 -59zM477 207l283 -33q14 -2 25 -14t9 -28t-14 -28q-12 -10 -28 -8l-283 33q-16 2 -27 14q-23 27 7 55q12 11 28 9zM477 330l283 -33q14 -2 25 -14q11 -13 9 -29t-14 -26t-28 -9l-283 33q-16 2 -27 14q-23 27 7 55
q12 11 28 9zM1075 944l-123 -70l-30 54l122 69zM614 997q117 0 200 -82t83 -200q0 -81 -80 -183t-80 -163v-25l-245 25q0 61 -80 162t-80 184q0 119 82 201t200 81zM184 997l123 -69l-31 -54l-122 70zM846 1174l53 -29l-72 -123l-51 31zM401 1022l-71 123l53 29l70 -121z
M645 1087h-61v142h61v-142z" />
    <glyph glyph-name="h" unicode="h" horiz-adv-x="1331" 
d="M1214 141q27 0 27 27v434q0 29 -27 29h-1097q-27 0 -27 -29v-434q0 -25 27 -27h1097zM1331 967v-856q0 -25 -18 -43t-43 -19h-1209q-29 0 -43 19q-18 18 -18 43v856q0 25 18 43q14 18 43 18h420v-168q0 -12 10 -20t19 -9h305q8 0 21 9q8 12 8 20v168h426q25 0 43 -18
t18 -43zM578 901q-27 0 -27 27v223q0 27 27 29h176q6 0 16 -8t10 -21v-223q0 -12 -8 -20t-18 -7h-176z" />
    <glyph glyph-name="i" unicode="i" 
d="M1229 1229v-1229h-1229v1229h1229zM614 614v-282h-280v282h280zM614 614v281h283v-281h-283zM897 614h281v281h-281v283h-283v-283h-280v-281h-283v-282h283v-281h280v281h283v282zM897 332v-281h281v281h-281zM334 895v283h-283v-283h283z" />
    <glyph glyph-name="j" unicode="j" 
d="M1006 348v96q0 23 12 28q13 5 31 -11l170 -142q10 -10 10 -21t-10 -26l-170 -139q-18 -14 -31 -11q-12 3 -12 23v88h-105q-74 0 -143 66l39 61q6 10 6 64q57 -76 102 -76h101zM1006 817v86q0 19 12 23t31 -11l170 -139q10 -14 10 -25t-10 -22l-170 -141q-18 -16 -31 -11
q-12 5 -12 27v96h-105q-51 1 -108 -73l-31 -47q-12 25 -35 49l-43 41q96 149 217 147h105zM0 334q0 40 18 70t38 44t40 29q18 13 18 27t-57 134t-57 167q0 102 29 187t57 118l29 33l8 -4l31 88h36l35 -105l43 66l76 -6l78 -76l115 -39l151 -31l78 -96l-33 -96l-45 -39
l-115 39l-114 -39l78 -37q-2 -2 -2 -5q0 -54 98 -149q98 -94 92 -194l-2 -35l-72 -115l-39 -77l115 -76v-76l-39 -39h-612l-37 39v76l115 76l-39 77q-115 25 -115 64z" />
    <glyph glyph-name="k" unicode="k" 
d="M637 367q-23 0 -37 14l-328 330q-16 17 -16 37t16 36l66 66q14 14 37 14t35 -14l227 -227l436 436q16 16 39 16t35 -16l67 -66q14 -15 14 -35t-14 -38l-540 -539q-14 -14 -37 -14zM1126 307q0 -41 -17 -79q-34 -75 -108 -109q-39 -16 -79 -17h-717q-85 0 -145 60t-60 145
v615q0 86 59 145t146 59h717q10 0 34 -4l-125 -125h-626q-33 0 -53 -22q-23 -20 -23 -53v-615q0 -33 23 -55t53 -21h717q32 -1 54 21t21 55v217l129 129v-346z" />
    <glyph glyph-name="l" unicode="l" 
d="M602 766q70 0 119 -49t49 -129t-48 -155t-122 -111t-159 -41q-85 -6 -158 38q14 -1 47 19q104 62 104 260q0 70 49 119t119 49zM1229 180q0 -76 -52 -128t-128 -52h-869q-76 0 -128 52t-52 128v869q0 76 52 128t128 52h668l-141 -148h-527q-33 0 -33 -32v-869
q0 -33 33 -33h869q33 0 32 33v508l148 141v-649zM1204 1014l-360 -363q-14 72 -68 123t-125 68l363 362q29 29 77 22t88 -46t47 -88t-22 -78z" />
    <glyph glyph-name="m" unicode="m" 
d="M1229 260v-18h-352q-4 258 -109 299l-90 37l49 22q39 16 49 45q-35 39 -49 86l-10 6q-20 53 -17 105l9 6q-6 74 11 104t55 52q38 20 73 20h18q37 0 74 -20t54 -52t12 -104l8 -6q4 -51 -17 -105l-10 -6q-14 -47 -49 -86q10 -29 49 -45l170 -72q72 -27 72 -268zM829 176
h-829v21q0 270 80 299l190 82q43 18 54 49q-41 47 -54 96l-12 6q-20 66 -18 117l8 8q-6 78 13 115t61 59t84 25h20q41 -2 82 -25q41 -24 60 -58t14 -116l8 -8q4 -59 -19 -117l-12 -6q-12 -49 -53 -96q16 -33 53 -49l191 -82q80 -29 79 -299v-21z" />
    <glyph glyph-name="n" unicode="n" 
d="M905 47v-22h-905v22q0 295 88 326l207 88q45 23 59 55q-47 49 -59 105l-12 8q-25 61 -21 127l8 8q-4 86 16 126t65 64q46 24 91 25h21q45 0 91 -25q46 -24 66 -62t15 -128l10 -8q4 -59 -20 -127l-15 -8q-12 -55 -59 -105q14 -32 59 -55l207 -88q88 -31 88 -326zM1229 270
v-20h-289q-29 143 -104 170l-205 86q-14 10 -17 10q20 29 39 72l11 6q33 89 30 164l-2 22l-6 6q0 88 -24 131t-68 70q-6 92 14 129t66 62t92 26h20q46 -2 92 -26t65 -65q19 -40 15 -126l9 -8q4 -66 -21 -127l-12 -8q-12 -55 -60 -103q15 -34 60 -57l207 -86q88 -33 88 -328z
" />
    <glyph glyph-name="o" unicode="o" 
d="M354 543q-2 -8 4 -21q6 -8 41 -22q41 -10 95 -11q57 4 96 15q4 -2 36 10t44 35q4 18 -23 31q23 18 25 26l4 15q0 16 -30 27t-32 22q0 28 18 82q18 55 19 63q55 8 62 25q6 14 -25 18l-6 4q33 27 45 58q12 53 -20 69q-7 8 -17 6t-35 -6q-47 -20 -66 -64t1 -65q-6 0 -10 -4
q-37 -4 -43 -22q-4 -8 5 -12t38 -7q-49 -117 -76 -149q-8 -8 -54 -24t-51 -38q-6 -14 9 -29q-42 -7 -54 -32zM872 63h-679q-35 1 -55 9t-54 28q-53 42 -73 94q-19 52 -3 93l299 805q44 73 142 73h559q59 0 86 -41q31 -37 12 -92l-203 -651q-12 -45 -56 -77t-89 -32h-658
q-25 -13 -13 -46q13 -34 44 -58q33 -23 62 -23h679q25 0 41 17q18 14 29 33l221 708l4 23q0 12 -2 20q29 -13 45 -31q27 -39 13 -94l-203 -649q-12 -47 -55 -78t-93 -31z" />
    <glyph glyph-name="p" unicode="p" horiz-adv-x="1331" 
d="M248 424q-27 0 -27 27v55q0 27 27 29h833q27 0 27 -29v-55q0 -27 -27 -27h-833zM221 727q0 29 27 29h833q27 0 27 -29v-53q0 -29 -27 -29h-833q-27 0 -27 29v53zM221 950q0 27 27 27h833q27 0 27 -27v-55q0 -29 -27 -29h-833q-10 0 -19 8q-8 8 -8 21v55zM1221 1090h-1110
v-777h428l125 -127l124 127h433v777zM1331 285q-1 -35 -25 -60t-59 -24h-405l-178 -174l-175 174h-407q-34 1 -58 25t-24 59v833q0 35 25 60t57 24h1165q35 1 60 -24t24 -60v-833z" />
    <glyph glyph-name="q" unicode="q" 
d="M522 295q0 14 91 14t92 -14q0 -43 -27 -72t-65 -29q-39 0 -65 30q-26 28 -26 71zM614 367q-358 0 -456 -121q104 -125 458 -123t455 123q-99 121 -457 121zM1190 207q0 -49 -60 -91t-198 -79q-139 -37 -319 -37q-181 0 -366 50q-89 24 -149 66q-59 42 -59 82t24 68
q84 170 125 327t63 254q55 244 261 290q4 39 33 65t69 27q40 0 69 -27q30 -27 32 -65q206 -46 261 -290q22 -97 62 -254t125 -327q27 -31 27 -59z" />
    <glyph glyph-name="r" unicode="r" 
d="M358 281h820q22 -1 36 -15t15 -35v-77q-1 -23 -15 -37t-36 -15h-820q-22 0 -36 16t-15 36v77q0 16 14 33t37 17zM51 281h103q22 -1 36 -17t15 -33v-77q-1 -18 -15 -34t-36 -18h-103q-23 0 -37 14t-14 38v77q0 20 14 35t37 15zM358 563h820q49 0 51 -51v-76q1 -23 -15 -38
t-36 -15h-820q-20 0 -36 16q-14 18 -15 37v76q0 18 14 34t37 17zM51 563h103q22 0 36 -16t15 -35v-76q0 -18 -15 -37q-16 -16 -36 -16h-103q-19 0 -35 15t-16 38v76q0 23 14 37t37 14zM358 846h820q20 0 35 -16t16 -37v-76q-1 -23 -17 -37t-34 -14h-820q-18 0 -36 14
q-14 18 -15 37v76q0 18 15 36q16 17 36 17zM51 846h103q20 0 36 -17q14 -18 15 -36v-76q0 -18 -15 -37q-18 -14 -36 -14h-103q-18 0 -37 14q-14 14 -14 37v76q0 23 16 38t35 15zM1229 997q-1 -20 -15 -34t-36 -15h-820q-22 0 -36 16t-15 33v78q1 19 15 35t36 16h820
q22 0 36 -14t15 -37v-78zM51 1126h103q22 0 36 -16t15 -35v-78q-1 -16 -15 -32t-36 -17h-103q-23 0 -37 14t-14 35v78q0 23 14 37t37 14z" />
    <glyph glyph-name="s" unicode="s" 
d="M1022 139h45q104 0 104 -139h-661q0 139 104 139h45q-1 53 49 155t50 159v69h-21q-27 0 -45 18t-18 46q0 27 18 45t45 18h103q-53 0 -92 39t-39 94q0 54 39 94t93 40t93 -40q39 -38 39 -94t-39 -94q-39 -39 -94 -39h104q27 0 45 -18q19 -18 19 -45t-18 -45t-46 -19h-20
v-69q0 -57 49 -159t49 -155zM606 595q0 -50 24 -83t60 -47v-12q0 -43 -43 -129q-41 -92 -47 -119q-80 -3 -119 -63t-39 -142h-383q0 186 140 186v52q-1 36 25 60t61 24h8q0 74 33 210t32 211v58h-41q-35 1 -61 25t-25 59v51h-65v293h143v-133h123v133h143v-133h123v133h142
v-248q-82 0 -140 -58t-59 -141q0 -33 8 -57l2 -41q-45 -39 -45 -89z" />
    <glyph glyph-name="t" unicode="t" 
d="M61 307h1106q27 0 44 -17t18 -44v-123q1 -27 -17 -44t-45 -18h-1106q-27 -1 -44 17t-17 45v123q0 27 17 44t44 17zM61 737h1106q27 0 44 -17t18 -44v-123q1 -27 -17 -44t-45 -17h-1106q-27 0 -44 17t-17 44v123q0 27 17 44t44 17zM61 1167h1106q27 0 44 -17t18 -44v-123
q1 -27 -17 -44t-45 -17h-1106q-27 0 -44 17t-17 44v123q0 27 17 44t44 17z" />
    <glyph glyph-name="u" unicode="u" horiz-adv-x="1331" 
d="M111 170h1110v616q-20 -20 -46 -40l-82 -61q-56 -41 -91 -67t-97 -76t-127 -93q-55 -33 -112 -33t-113 33q-66 45 -149 112t-178 135q-94 68 -115 90v-616zM1221 1057h-1110v-45q0 -38 36 -97q27 -35 46 -55t167 -129l146 -110q41 -41 119 -84q25 -10 39 -11h4
q14 0 48 17t52 32l24 20t17 13q12 8 16 13l144 110q13 9 85 63t103 85t53 84q10 31 11 49v45zM1249 1169q33 -1 58 -25t24 -59v-942q-1 -35 -25 -59t-57 -25h-1167q-34 0 -58 25t-24 59v942q0 35 25 60t57 24h1167z" />
    <glyph glyph-name="v" unicode="v" 
d="M1229 569q0 -82 -58 -170q-54 -72 -139 -118q14 -81 58 -127l21 -21q3 -2 3 -10q0 -21 -22 -21q-6 0 -27 4l-27 7q-121 25 -215 98q-8 -2 -23 -2l-71 -4q-168 0 -313 82l18 10q41 -4 66 -4q200 0 379 104q57 35 109 93q112 124 112 272q0 16 -4 53q133 -106 133 -246z
M523 500q65 0 150 26t133 71q48 46 68 81t20 82q1 81 -73 153q-138 111 -328 111q-191 0 -317 -111q-72 -72 -73 -136t20 -97q32 -63 117 -113q31 -20 71 -41l-12 -71q23 12 47 31q24 20 31 24l61 -6q20 -4 85 -4zM709 431q-111 -34 -182 -34t-121 6q-94 -72 -216 -100
l-28 -6q-16 -4 -29 -4l-12 6q-6 6 -6 15q0 10 5 14t7 8q35 34 48 64t22 71q-73 40 -140 119q-57 87 -57 161q0 128 101 230q101 103 298 139q50 6 128 6q128 0 282 -77q112 -64 164 -170q25 -55 25 -119q-1 -115 -93 -211q-85 -84 -196 -118z" />
    <glyph glyph-name="w" unicode="w" horiz-adv-x="1478" 
d="M1268 59q0 -27 -16 -43t-44 -16h-329v391h-277v-391h-332q-23 0 -43 16q-16 20 -16 43v488l528 434l529 -434v-488zM1180 1169q28 0 28 -30v-273l258 -211q25 -17 4 -43l-34 -41q-10 -10 -23 -10h-51q-10 0 -21 6l-581 477q-20 14 -39 0l-584 -477q-6 -6 -20 -6h-51
q-16 0 -23 10l-37 41q-6 10 -6 20t12 23l682 557q48 34 92 0l189 -153v80q0 12 9 21t22 9h174z" />
    <glyph glyph-name="x" unicode="x" 
d="M1126 664q0 75 -28 129q-33 53 -76 90q-68 68 -211 114q-93 27 -197 27t-180 -24q-216 -66 -301 -208q-31 -52 -31 -114t29 -115q64 -103 176 -160q51 -29 111 -45q146 -43 340 -14q63 -55 139 -90q-10 31 -12 59l-13 62l66 35q66 36 127 108q61 71 61 146zM1229 688
q0 -176 -148 -303q-43 -37 -94 -66l12 -51q9 -33 21 -50t17 -24t28 -33q25 -26 25 -33t-9 -19q-13 -9 -53 -3l-35 7q-163 45 -262 123q-142 -14 -220 -2q-164 25 -278 92q-130 72 -202 206q-31 68 -31 147q0 146 107 253t262 155q111 39 213 39t160 -8q133 -18 253 -90
q137 -76 201 -204q33 -66 33 -136z" />
    <glyph glyph-name="y" unicode="y" horiz-adv-x="1331" 
d="M646 367q53 0 104 15t97 46q45 32 95 72l373 284q6 3 16 13v-654q-1 -35 -25 -59t-59 -25h-1165q-34 0 -58 25t-24 59v654q12 -11 14 -13t8 -6t7 -6l184 -137q123 -94 182 -141q47 -42 123 -84q75 -43 128 -43zM664 530q-23 0 -71 26t-77 56l-43 31q-115 90 -172 133
l-174 131q-12 8 -48 44t-57 79q-22 44 -22 70t27 48t55 21h1165q29 0 56 -21q47 -36 12 -101q-36 -80 -93 -125q-57 -44 -206 -156t-183 -140t-67 -53q-75 -42 -100 -43h-2z" />
    <glyph glyph-name="z" unicode="z" 
d="M1009 111q-11 0 -16 2q-152 35 -262 123q-207 -21 -356 28q-224 66 -326 240q-49 80 -49 174q0 183 180 317q84 59 195 97q116 34 240 34t239 -34q111 -37 195 -97q180 -135 180 -327q-1 -100 -65 -191q-64 -92 -177 -158q2 -12 14 -61q15 -41 43 -78l29 -28
q16 -17 17 -29q-5 -21 -29 -21l-35 7q-6 2 -17 2z" />
    <glyph glyph-name="braceleft" unicode="{" 
d="M616 0q-32 0 -57 25l-536 534q-23 27 -23 55t23 56l79 78q25 24 57 24t52 -24l270 -269v674q0 33 23 55t53 21h115q31 1 52 -21t21 -55v-674l273 269q53 53 106 0l82 -78q23 -27 23 -56t-23 -55l-538 -534q-20 -25 -52 -25z" />
    <glyph glyph-name="bar" unicode="|" 
d="M76 272q-49 0 -70 45q-18 47 19 84l534 533q20 22 54 22t55 -22l536 -533q37 -37 19 -84q-20 -45 -70 -45h-1077z" />
    <glyph glyph-name="braceright" unicode="}" 
d="M1229 614q0 -31 -25 -55l-80 -78q-24 -25 -54 -25t-52 25l-273 269v-674q1 -32 -21 -54t-54 -22h-115q-31 0 -52 22t-22 54v674l-270 -269q-25 -25 -55 -25t-54 25l-79 78q-23 23 -23 55t23 56l536 534q23 25 53 25t56 -25l536 -534q25 -25 25 -56z" />
    <glyph glyph-name="exclamdown" unicode="&#xa1;" 
d="M1118 1229q20 0 35 -12l64 -64q12 -15 12 -33t-12 -35l-555 -555h215q43 0 45 -47v-67q4 -20 -14 -34t-31 -13h-461q-14 0 -33 14q-12 16 -12 33v461q0 20 12 32q16 12 33 13h67q19 0 33 -14t14 -31v-215l557 555q11 12 31 12zM1229 246q0 -53 -21 -94q-18 -47 -53 -78
q-74 -74 -172 -74h-737q-102 0 -174 74q-72 72 -72 172v737q0 96 72 174q70 70 174 72h647l-156 -154h-491q-35 0 -66 -26q-27 -31 -26 -66v-737q0 -35 26 -66q31 -27 66 -26h737q37 0 65 28t27 64v491l154 154v-645z" />
    <glyph glyph-name="cent" unicode="&#xa2;" 
d="M902 705q34 0 56 9q22 8 46 30t32 51q10 20 10 54t-10 54q-8 27 -34 51q-60 56 -146 31q25 82 -35 150q-18 20 -58 35t-97 -5q-27 -14 -48 -30q-66 -66 -32 -158q36 -74 89 -84q54 -10 91 2q-24 -81 28 -141q44 -48 108 -49zM557 393q8 0 21 -8l38 -41q19 -19 0 -41
l-198 -197q-10 -10 -20 -10t-21 8l-39 41q-8 7 -8 19t6 20l61 60l-80 82l-143 -144q-22 -22 -58 -24t-61 24t-24 60q0 35 24 59l463 463q-80 100 -92 254q0 141 84 223q100 100 259 80q160 -19 286 -141q124 -130 141 -288t-82 -255q-41 -43 -100 -66t-121 -18
q-135 0 -256 90l-240 -237l80 -82l60 61q12 8 20 8z" />
    <glyph glyph-name="sterling" unicode="&#xa3;" 
d="M807 887q-29 0 -48 19t-20 48v273l340 -340h-272zM655 1229v-305q0 -49 36 -85t85 -36h303v-735q0 -28 -19 -48t-48 -20h-795q-29 0 -48 19t-19 49v1093q0 29 19 48t48 20h438z" />
    <glyph glyph-name="currency" unicode="&#xa4;" horiz-adv-x="1374" 
d="M1333 315l13 -6q33 -10 6 -26l-510 -283l-811 326q-51 104 4 186l801 -322q-29 -63 -11 -157zM838 211l-809 326q-51 100 2 188l800 -322q-29 -63 -10 -157l508 278q49 -14 19 -30zM8 841q0 50 27 93l801 -322q-28 -66 -11 -157l508 280h2q31 -9 25 -18q0 -6 -8 -12
l-510 -285l-809 328q-25 43 -25 93zM793 827q51 1 104 29t71 50t-2 30q-21 8 -57 -2q0 31 -53 20q-52 -12 -72 -9t-143 44q31 19 15 25t-34 1q-16 -5 -18 -7q-4 18 -47 32t-80 8t-39 -18q-10 -20 29 -36t78 -17l-2 -4q-16 -12 -2 -19q16 -6 55 11q119 -53 124 -59t-5 -21
q-10 -16 0 -23q24 -8 45 -8q-10 -27 33 -27zM604 1225l742 -299q31 -12 4 -27l-494 -272l-801 321l494 275q22 14 55 2z" />
    <glyph glyph-name="yen" unicode="&#xa5;" horiz-adv-x="1490" 
d="M174 614q0 72 51 123t126 51t128 -57l414 227q-15 56 9 112t82 89t128 13t105 -84t13 -135t-85 -103q-53 -29 -113 -19t-100 56l-414 -228q6 -43 6 -45t-6 -45l414 -227q40 46 100 56t118 -21t80 -101t-13 -133t-105 -85t-128 12t-83 88q-25 55 -8 112l-414 228
q-53 -58 -128 -58t-126 52q-51 50 -51 122z" />
    <glyph glyph-name="brokenbar" unicode="&#xa6;" horiz-adv-x="1353" 
d="M737 266q0 -16 17 -16h438q14 0 14 16v99q0 16 -14 16h-438q-6 0 -12 -5t-5 -11v-99zM1354 315q0 -83 -30 -151q-62 -139 -204 -201q-59 -27 -143 -29q-160 -4 -274 110q-113 113 -113 270t112 272q49 49 120 81q71 31 151 31q79 0 149 -30q140 -61 203 -203
q29 -66 29 -150zM0 92v27q0 371 111 413l262 111q55 25 73 70q-57 66 -73 131l-17 10q-31 80 -26 160l12 10q-6 117 20 163t83 78q58 32 114 31h27q55 0 113 -32t85 -82q27 -51 17 -158l12 -10q4 -80 -27 -160l-14 -10q-21 -68 -74 -129q-96 -66 -152 -170
q-56 -103 -56 -225t55 -228h-545z" />
    <glyph glyph-name="section" unicode="&#xa7;" horiz-adv-x="1353" 
d="M774 188q0 -6 4 -10l56 -55q6 -6 11 -6t11 6l115 115l116 -115q1 -6 9 -6t14 6l55 55q4 4 4 9t-4 14l-116 114l116 117q12 10 0 23l-55 55q-12 10 -23 0l-116 -117l-115 117q-10 10 -22 0l-56 -55q-12 -12 0 -23l115 -117l-115 -114q-4 -7 -4 -13zM1354 316
q0 -156 -111 -271q-115 -111 -271 -111q-157 0 -272 111q-112 116 -110 270q0 161 112 273q55 55 127 83q141 55 287 -1q153 -62 210 -210q28 -73 28 -144zM0 92v27q0 373 111 413l262 111q55 25 73 70q-55 63 -75 131l-15 10q-31 80 -26 160l12 10q-10 106 16 158t85 83
q58 32 114 31h27q55 0 113 -32t84 -77q26 -46 20 -163l12 -10q4 -80 -27 -160l-16 -10q-17 -68 -72 -129q-96 -66 -153 -170q-57 -105 -57 -227t57 -226h-545z" />
    <glyph glyph-name="copyright" unicode="&#xa9;" 
d="M614 162v-125h578v577h-150q-87 0 -73 -36q6 -12 25 -35t14 -60q-6 -43 -58 -60t-105 0q-52 17 -58 57t13 62q33 38 24 55q-8 17 -72 17h-138v-161q0 -58 -8 -66t-16 -12t-30 15q-24 20 -38 26t-39 2q-43 -6 -60 -58t0 -105q17 -52 60 -58q36 -6 64 18q29 23 42 23
q25 0 25 -76zM1229 1229v-1229h-1229v1229h1229zM640 991q-26 0 -26 76v125h-577v-578h149q89 0 74 37q-6 12 -25 35t-14 59q7 43 59 61t104 0q52 -17 58 -61q6 -35 -13 -58t-25 -35q-11 -24 22 -32q18 -5 51 -6h137v162q0 62 17 72t39 -10q22 -19 36 -25t39 -2q43 6 61 58
q17 53 0 105t-61 58q-35 6 -64 -18q-28 -23 -41 -23z" />
    <glyph glyph-name="registered" unicode="&#xae;" horiz-adv-x="1576" 
d="M659 444q-109 0 -180 -38q-96 -50 -96 -142t92 -147q72 -43 168 -43t161 41q64 41 64 115t-55 130q-29 29 -108 82q-14 2 -46 2zM1483 575h-148v-147h-100v147h-148v101h148v147h100v-147h148v-101zM655 690q129 0 129 156q0 96 -45 180q-51 100 -141 100q-68 0 -104 -48
t-35 -128q0 -80 53 -164q57 -96 143 -96zM915 915q0 -106 -79 -182q-10 -10 -28 -26t-34 -33q-16 -18 -16 -52t33 -61q109 -88 143 -139t35 -123q0 -137 -131 -219q-110 -70 -246 -70t-237 55t-101 164q0 131 145 203q113 49 265 53q-46 61 -46 91t17 75q-16 -4 -25 -4h-26
q-106 0 -180 70t-74 169t65 176t166 103q63 12 131 13h307l-96 -56h-94q106 -63 106 -207z" />
    <glyph glyph-name="degree" unicode="&#xb0;" 
d="M805 551l-86 -86h2l-107 -105l-272 273l107 104l165 -166l86 86zM1165 552q0 -102 -40 -206q-39 -104 -123 -186q-163 -160 -386 -160t-391 162q-72 68 -112 164q-81 189 -27 381q27 90 90 178q18 23 39 4l88 -66q2 -2 10 -18q1 -14 -23 -46t-44 -99q-41 -138 18 -272
t205 -193q65 -29 145 -29t146 29q66 23 124 82q117 119 116 277q-1 157 -105 261t-231 115v-80q0 -35 -16 -41t-42 16l-143 152q-14 18 -16 41q-1 23 14 35l145 157q20 25 38 18t20 -42v-90q204 -20 340 -156q161 -166 161 -388z" />
    <glyph glyph-name="plusminus" unicode="&#xb1;" horiz-adv-x="1830" 
d="M1122 436q18 10 38 -2t18 -28q-4 -16 -12 -21q-8 -6 -25 -13q-16 -7 -19 -10q-100 -47 -225 -44t-219 61q-18 8 -19 30q0 22 21 29q25 3 44 -9q90 -54 202 -47t196 54zM1212 645q12 -27 -4 -55t-49 -38q-33 -9 -65 7t-37 46q-6 29 9 53t44 33q28 9 60 -4t42 -42zM782 621
q0 -35 -37 -58t-69 -13t-48 39q-15 28 -5 56q14 41 59 47q36 10 68 -13t32 -58zM340 664q39 82 125 145q-76 43 -138 -8q-30 -25 -32 -67t45 -70zM1495 664q31 18 41 49t-8 67t-68 44q-50 9 -90 -15q86 -63 125 -145zM979 236q203 18 323 98t140 175q22 95 -43 181
q-84 104 -252 154q-231 63 -459 0q-168 -52 -245 -148t-47 -198t159 -176q178 -100 424 -86zM1352 1162q-34 -9 -54 -32q-20 -24 -19 -52t27 -50t60 -24q34 0 60 22q28 22 30 58q2 34 -34 60t-70 18zM889 940q0 200 141 236q96 14 199 -25q29 45 82 63q70 18 119 -4
q46 -16 74 -57t22 -92t-60 -89t-115 -32q-60 6 -104 50q-43 44 -37 100q-169 67 -223 -19q-25 -45 -24 -131q193 -10 333 -84q2 -2 15 -8l24 18q71 39 135 24q64 -16 102 -56t41 -87t-25 -87t-72 -60q23 -121 -64 -223q-109 -133 -330 -184q-266 -57 -508 28
q-174 70 -243 173t-52 204q-94 45 -98 137q0 59 50 107t126 49q76 2 129 -43q50 33 162 63q113 29 201 29z" />
    <glyph glyph-name="acute" unicode="&#xb4;" 
d="M1229 1004v-838q1 -23 -15 -37t-38 -14h-523q111 104 471 104h52v785h53zM53 219h51q360 0 471 -104h-522q-23 0 -38 14t-15 37v838h53v-785zM1112 279h-53q-276 0 -418 -105v836q137 104 418 104h53v-835zM117 1114h53q285 0 422 -104v-836q-141 104 -422 105h-53v835z
" />
    <glyph glyph-name="paragraph" unicode="&#xb6;" horiz-adv-x="1355" 
d="M918 98q0 -16 16 -16h78q6 0 11 5t3 11l2 162h164q12 0 16 16l-2 78q0 16 -16 17h-162v164q0 16 -16 16h-78q-16 0 -16 -16v-164h-164q-15 0 -15 -17l-2 -78q0 -16 17 -16h164v-162zM1356 316q0 -158 -113 -271q-55 -51 -121 -82q-74 -29 -150 -29t-149 29
q-144 66 -202 205q-31 68 -31 146q0 157 112 272q113 112 271 112q158 -1 271 -113q112 -111 112 -269zM586 1296q55 0 113 -32t84 -79q26 -48 20 -161l10 -10q6 -72 -25 -160l-16 -10q-19 -66 -72 -129q-96 -66 -153 -170q-57 -103 -57 -225t55 -228h-543l-2 27
q0 373 113 413l260 111q57 25 76 70q-55 57 -76 131l-17 10q-31 88 -24 160l10 10q-6 117 20 163t83 78q58 32 114 31h27z" />
    <glyph glyph-name="periodcentered" unicode="&#xb7;" 
d="M614 430q118 0 167 109t-36 206q-52 52 -112 53q-137 2 -191 -112q-14 -39 -14 -71t14 -70q16 -33 41 -60q59 -55 131 -55zM942 1104q16 14 24 14t48 -39q39 -39 70 -71q30 -32 30 -38t-16 -27q-16 -23 -34 -45t-31 -38t-15 -22q27 -45 39 -95q53 -8 113 -13t59 -25v-183
q0 -15 -76 -28l-57 -7l-41 -4q-8 -41 -35 -90q37 -53 94 -121l4 -10q0 -8 -20 -31l-49 -49q-69 -69 -77 -69t-22 9q-12 9 -25 20q-13 12 -25 20t-37 27q-26 19 -27 20q-53 -26 -93 -35v-6l-4 -33l-6 -57q-13 -78 -26 -78h-183q-10 0 -16 12q-6 27 -12 78t-11 82
q-49 12 -92 37l-123 -94l-8 -2q-18 0 -83 72t-64 77l12 21q2 4 12 17q11 12 17 22t17 23t16 21t12 15q8 8 8 10q-23 39 -39 96q-53 7 -85 9q-33 2 -59 11t-26 19v181q0 22 133 36q25 0 37 5q12 39 37 90q-43 66 -92 120l-4 11q0 8 20 30l49 50q16 21 47 45t35 24l21 -14
q12 -10 43 -33t41 -33q25 -16 26 -18q29 16 92 37l2 37q9 79 21 110q6 25 16 25h183q8 0 14 -12q8 -37 11 -72t11 -88q38 -8 91 -37z" />
    <glyph glyph-name="onehalf" unicode="&#xbd;" 
d="M282 176q42 0 72 30t29 72q0 42 -30 71q-29 30 -71 30t-73 -29q-29 -30 -29 -72t29 -73q31 -29 73 -29zM721 1229q41 0 67 -27l412 -407q29 -29 29 -70t-29 -70l-651 -655l-547 -2l-2 549l651 655q29 27 70 27z" />
    <glyph glyph-name="questiondown" unicode="&#xbf;" 
d="M1229 723q0 -16 -15 -35q-16 -12 -30 -10h-70q-20 0 -34 12t-13 33v213l-555 -553q-14 -14 -34 -14t-32 14l-63 63q-14 14 -14 34t14 32l553 557h-215q-16 0 -33 12q-12 12 -12 33v70q0 18 13 31t32 14h463q18 -1 31 -15t14 -30v-461zM1073 539q13 0 23 -4h94q25 0 39 4
v-293q0 -53 -23 -99q-45 -90 -129 -127q-41 -20 -96 -20h-735q-153 0 -228 152q-18 43 -18 94v737q0 108 72 174q70 70 174 72h291l-2 -23q-2 -6 -3 -22v-72q0 -12 5 -37h-291q-35 0 -66 -26q-27 -27 -26 -66v-737q0 -39 26 -66q31 -27 66 -26h735q35 0 66 26q27 27 26 66
v293z" />
    <glyph glyph-name="multiply" unicode="&#xd7;" 
d="M381 390q0 -14 -12 -28l-39 -40q-23 -23 -54 0l-266 266q-10 14 -10 28t10 25l266 266q10 11 28 11t26 -11l39 -41q12 -10 12 -26t-12 -25l-123 -125h641q14 0 26 -12q10 -14 11 -27v-73q0 -12 -11 -27q-14 -10 -26 -10l-641 -2l123 -123q12 -12 12 -26zM545 1116h635
q20 0 34 -15t15 -36v-901q-1 -20 -15 -36t-34 -15h-635q-20 0 -36 15q-15 15 -15 36v282h127v-206h481v749h-481v-207h-127v283q0 20 15 36q16 15 36 15z" />
    <glyph glyph-name="divide" unicode="&#xf7;" 
d="M422 910q0 -18 16 -36l260 -262l-260 -258q-16 -16 -16 -36t16 -31l51 -54q14 -14 35 -14t35 14l346 347q14 14 15 34q0 20 -15 35l-346 346q-15 15 -35 15t-35 -15l-51 -51q-16 -16 -16 -34zM614 1229q254 0 434 -180q180 -181 181 -435q0 -254 -180 -434
q-181 -180 -435 -180t-434 180t-180 434t180 434t434 181z" />
    <glyph glyph-name="thorn" unicode="&#xfe;" horiz-adv-x="1597" 
d="M463 903h665v-543q0 -25 -17 -41t-42 -16h-65v-166q0 -31 -22 -53t-54 -23q-32 0 -52 23q-22 23 -22 53v166h-117v-166q1 -31 -21 -53t-54 -23q-32 0 -53 23q-22 23 -21 53v166h-66q-25 0 -42 16t-17 41v543zM1174 532v297q0 31 21 54t53 23t54 -24q22 -22 21 -53v-297
q1 -32 -21 -54t-54 -22t-53 23q-21 22 -21 53zM272 532v297q0 31 22 54t52 23t54 -24q22 -22 22 -53v-297q0 -32 -23 -54t-53 -22t-52 23q-22 22 -22 53zM901 1079q0 -14 10 -25q11 -12 27 -12t26 12t11 25q0 13 -10 25q-11 12 -27 12t-27 -11q-10 -12 -10 -26zM616 1079
q0 -14 12 -25q27 -26 50 0q10 11 10 25q0 13 -10 25t-24 12t-26 -12t-12 -25zM796 1219q71 0 140 -27l63 92q8 10 18 3t-1 -13l-62 -90q160 -74 176 -234h-665q6 76 53 137t121 97l-61 90q-8 8 2 14t16 -4l63 -92q66 27 137 27z" />
    <glyph glyph-name="circumflex" unicode="&#x2c6;" horiz-adv-x="1339" 
d="M936 -76q0 -35 -40 -35q-13 0 -22 13l-143 157q-8 8 -8 25v6q0 14 8 23l143 157q8 12 22 12q40 2 40 -34v-72h72q126 0 166 65q14 24 14 39t10 29l72 70q8 12 24 12q34 -5 37 -33q0 -360 -287 -360h-108v-74zM1012 750q0 34 40 34q14 0 21 -12l144 -158q10 -10 10 -24v-6
q0 -12 -10 -23l-144 -158q-8 -12 -21 -12q-42 0 -40 35v72h-72q-124 0 -164 -65q-14 -24 -16 -42t-10 -26l-72 -72q-10 -10 -25 -10l-12 2q-23 10 -22 26q1 15 -3 55t16 110t62 118q78 84 209 84h109v72zM498 362q0 -122 55 -227h-543l-2 27q0 371 111 413l262 111
q59 27 74 70q-53 59 -74 131l-16 10q-31 80 -27 160l12 10q-6 117 20 163t84 78t113 31h27q56 1 114 -31t85 -83t16 -158l12 -10q6 -72 -24 -160l-17 -10q-18 -66 -71 -129q-95 -66 -153 -170t-58 -226z" />
    <glyph glyph-name="caron" unicode="&#x2c7;" horiz-adv-x="1691" 
d="M1114 883v-293h-96v293h96zM846 883v-293h-98v293h98zM1286 1079h-807v-710h219v-146l148 146h268l172 172v538zM1384 1178v-686l-294 -293h-220l-147 -148h-148v148h-268v782l74 197h1003z" />
    <glyph glyph-name="tilde" unicode="&#x2dc;" horiz-adv-x="1439" 
d="M1440 613q0 -32 -23 -52l-536 -538q-23 -23 -53 -23t-56 23l-80 81q-45 53 0 107l406 399l-406 408q-22 22 -22 52t22 56l80 80q26 23 56 23t53 -23l536 -538q23 -23 23 -55zM770 612q0 -29 -22 -51l-537 -538q-27 -23 -57 -23t-52 23l-79 81q-23 23 -23 54t23 53
l405 399l-405 408q-23 20 -23 53t23 55l79 80q23 23 53 23t56 -23l537 -538q22 -27 22 -56z" />
    <glyph glyph-name="endash" unicode="&#x2013;" 
d="M676 956q-88 82 -200 82q-64 0 -111 -22q-110 -42 -152 -152q-23 -47 -23 -110q0 -64 22 -112q45 -102 153 -150q49 -20 110 -20t111 20q51 27 90 61q84 95 84 204q0 108 -84 199zM948 736q0 -116 -78 -242l344 -347q32 -27 0 -63q-26 -41 -69 -70q-15 -14 -33 -14
t-31 14l-346 344q-124 -77 -241 -77q-216 0 -355 139t-139 334t139 335t334 140t335 -137q140 -136 140 -356z" />
    <glyph glyph-name="emdash" unicode="&#x2014;" 
d="M776 541q0 -79 56 -133t132 -54q77 0 132 54t55 133q0 78 -54 133t-132 55q-77 0 -133 -55t-56 -133zM78 541q0 -79 55 -133t132 -54t132 54t56 133q1 78 -55 133t-134 55t-132 -55t-54 -133zM1229 562q0 -126 -81 -206q-82 -80 -188 -80t-182 66t-92 164
q-31 -25 -72 -25t-71 25q-16 -98 -92 -164t-183 -66q-108 0 -188 80t-80 206t110 225t242 102q44 63 114 63t114 -43q14 13 34 13t35 -13q43 43 114 43t114 -63q133 -1 243 -101t109 -226z" />
    <glyph glyph-name="dagger" unicode="&#x2020;" 
d="M709 340q1 6 -7 14t-18 8h-139q-7 0 -15 -8t-8 -14v-135q0 -9 7 -17t16 -8h139q8 0 16 8t9 17v135zM688 1028h-147q-9 0 -17 -8t-8 -16l12 -570q2 -20 23 -20h125q10 0 17 7t7 13l13 570q0 8 -7 16t-18 8zM616 1229q125 0 239 -49q228 -98 327 -326q47 -113 47 -240
q0 -128 -49 -242t-131 -192q-78 -82 -193 -131t-240 -49q-126 0 -242 49t-194 131q-180 180 -180 432t180 439q80 80 195 131q116 47 241 47z" />
    <glyph glyph-name="daggerdbl" unicode="&#x2021;" 
d="M707 303q0 -78 56 -134t134 -56h12v-113h-592v113h13q78 0 133 55t57 133v156q52 -10 96 -10t91 10v-154zM954 1069v-190q0 -27 -2 -39q49 6 86 30q79 57 95 199h-179zM274 879v190h-178q16 -144 94 -199q41 -27 86 -30q-2 12 -2 39zM1229 1072q0 -38 -21 -103
q-61 -215 -280 -226q-41 -92 -126 -148q-86 -56 -188 -56t-187 56t-126 148q-187 9 -260 167q-33 72 -41 196l2 12l2 45h270v66h680v-66h271l2 -45l2 -4v-42z" />
    <glyph glyph-name="bullet" unicode="&#x2022;" 
d="M879 637q0 29 -31 31h-31q-12 0 -21 -10t-10 -21v-481q0 -8 8 -18t23 -11h31q29 0 31 29v481zM618 127q31 0 31 29v481q0 12 -9 21t-22 10h-30q-29 0 -29 -31v-481q0 -29 29 -29h30zM389 127q31 0 31 29v481q0 12 -9 21t-22 10h-31q-28 0 -28 -31v-481q0 -29 28 -29h31z
M578 758h26q264 0 404 20v-657q0 -51 -35 -86t-84 -35h-574q-49 0 -85 36t-35 85v657q132 -20 383 -20zM719 1051v18q4 10 0 16v13q-37 8 -57 8h-117q-25 0 -58 -8v-29l2 -18h230zM721 848h-236q-301 0 -393 47l-2 27v55l2 29q23 12 55 18l78 12l80 6q53 4 62 5
q-12 122 57 153q31 18 76 25q61 4 111 4t84 -2q92 -5 124 -60q20 -27 21 -82v-18q0 -12 -2 -20q12 0 61 -5l82 -6l78 -12q37 -6 55 -18v-111q-70 -36 -332 -45q-59 -2 -61 -2z" />
    <glyph glyph-name="ellipsis" unicode="&#x2026;" 
d="M388 0q-30 0 -56 23l-80 81q-23 27 -23 54t23 53l405 399l-405 408q-23 22 -23 52t23 56l80 80q27 23 56 23t52 -23l537 -538q23 -27 23 -56t-23 -51l-537 -538q-22 -23 -52 -23z" />
    <glyph glyph-name="fraction" unicode="&#x2044;" 
d="M891 890q0 16 -10 25l-35 37q-30 21 -49 0l-183 -182l-182 182q-21 21 -49 0l-35 -37q-10 -8 -10 -23t10 -26l182 -180l-182 -184q-10 -8 -10 -24t10 -25l35 -35q11 -10 25 -10t24 10l182 182l183 -182q8 -10 23 -10t26 10l35 37q10 8 10 23t-10 24l-183 180l183 184
q10 8 10 24zM0 678q0 183 180 317q84 59 195 97q238 71 479 0q111 -37 195 -97q180 -135 180 -327q-1 -100 -65 -191q-64 -92 -177 -158q2 -12 14 -61q15 -41 43 -78l29 -28q16 -17 17 -29q-5 -21 -29 -21l-35 7q-12 0 -33 4q-152 35 -262 123q-207 -21 -356 28
q-224 66 -326 240q-49 80 -49 174z" />
    <glyph glyph-name="Euro" unicode="&#x20ac;" 
d="M236 233h16q76 1 133 54q23 27 33 47l596 -193zM1081 1020v-811l-727 235v-24q0 -41 -30 -72t-72 -31h-2q-41 0 -72 31t-31 72v600q1 29 21 48t47 19h797q29 0 48 -19t19 -48h2z" />
    <glyph glyph-name="product" unicode="&#x220f;" horiz-adv-x="1441" 
d="M926 522q-45 0 -83 -16t-68 -46t-48 -71t-18 -84t19 -85t46 -66q59 -64 154 -64q94 0 149 64q27 24 46 66t20 85q0 88 -66 154q-63 63 -151 63zM1286 289q0 -87 -59 -183l203 -202q10 -10 10 -24t-10 -25q-10 -16 -34 -40t-40 -24t-27 10l-205 205q-163 -105 -338 -33
q-63 29 -114 78q-107 111 -107 255t107 252t256 108t252 -107q106 -106 106 -270zM614 895h283v283h-283v-283h-280v-281h280q-61 -61 -93 -137t-34 -145h-153v282h-283v-282h283v-281h233q14 -18 43 -51h-610v1229h1229v-613q-27 27 -51 43v236h-281v-154
q-161 -5 -283 -127v281zM334 895v283h-283v-283h283z" />
    <glyph glyph-name="infinity" unicode="&#x221e;" 
d="M1229 575q0 -20 -19 -28l-350 -154q-20 -8 -20 13v106q0 20 20 29l160 63q18 6 0 14l-160 64q-20 8 -20 29v104q0 20 20 12l350 -151q18 -8 19 -29v-72zM387 817v-108q0 -23 -20 -27l-160 -61q-20 -8 0 -17l160 -63q20 -6 20 -29v-106q0 -20 -18 -13l-351 154
q-18 8 -18 28v72q0 21 18 29l351 153q18 8 18 -12zM641 897h78q20 0 16 -20l-127 -525q-4 -20 -24 -20h-76q-20 0 -16 20l124 525q5 20 25 20z" />
    <glyph glyph-name="integral" unicode="&#x222b;" 
d="M324 520h581q16 0 17 17v155q0 16 -17 17h-581q-16 0 -17 -17v-155q1 -17 17 -17zM614 1040q176 0 301 -125t125 -301t-125 -301t-301 -125t-301 125t-125 301t125 301t301 125zM614 94q215 0 368 153t153 367t-153 368q-153 153 -368 153q-216 0 -368 -153t-152 -368
q0 -216 152 -368t368 -152zM614 1229q254 0 434 -180q180 -181 181 -435q0 -254 -180 -434q-181 -180 -435 -180t-434 180t-180 434t180 434t434 181z" />
    <glyph glyph-name="lessequal" unicode="&#x2264;" 
d="M303 430q0 60 -61 62q-58 0 -60 -62q0 -29 17 -43q14 -16 41 -16t47 16q16 20 16 43zM725 1333q-14 0 -14 -8l-2 -4v-6l-19 -94q-6 -51 -31 -91q-20 -41 -55 -67q-37 -31 -67 -62l-37 -43q-20 -25 -33 -36q-22 -29 -86 -60h-2v-495q64 0 206 -39t211 -39q70 0 101 3
t70 20q88 38 88 118q0 15 -4 29q31 12 41 41q14 26 14 58t-16 50q47 37 46 83t-30 71l22 45q25 63 -4 90q-20 28 -75 35h-45q-45 0 -70 -2l-70 -2l-47 2q-25 4 -45 12q0 47 41 117q39 78 39 126t-31 101q-37 47 -88 47h-8zM928 205q-61 -10 -143 -10t-165 23q-82 22 -132 40
t-107 18h-289q-40 0 -66 26t-26 65v495q0 39 27 65t65 25h266q25 14 35 25l27 29l24 30q26 33 75 72q49 40 61 64t16 44t7 37q3 18 8 42t5 38q14 58 56 80q18 10 64 10q46 1 87 -21t66 -54q53 -67 53 -146t-45 -182l53 4q18 2 83 2t110 -26t65 -62q38 -55 6 -170
q35 -101 -18 -178q12 -109 -51 -172q0 -63 -33 -109q-64 -78 -184 -104z" />
    <glyph glyph-name="greaterequal" unicode="&#x2265;" 
d="M987 858q-61 0 -61 -61q0 -23 16 -43q18 -18 46 -18t42 18q18 18 18 44t-16 43t-45 17zM379 50q0 -38 8 -60q4 -23 31 -58t78 -34h8q8 -2 16 6q0 6 6 34t14 73q8 46 29 89q23 39 58 68t65 59l37 43q14 20 33 37q28 38 88 60h2v495q-69 0 -156 25q-88 25 -152 40t-110 15
q-178 0 -235 -70q-25 -30 -25 -60t4 -42q-31 -12 -41 -41q-14 -27 -14 -57t16 -51q-47 -37 -47 -95q0 -16 11 -34t20 -25l-23 -45q-8 -18 -8 -46t12 -46q18 -18 32 -24t44 -9h45q47 0 70 2l70 2l47 -2q25 -4 45 -12q0 -45 -41 -117q-4 -10 -20 -46t-17 -74zM0 368
q0 48 16 93q-14 31 -14 79t31 99q-13 100 51 172q2 63 35 109q35 46 76 68t104 34t107 12t136 -13q93 -13 170 -40q78 -28 138 -29h289q36 1 63 -25t27 -65v-495q0 -39 -27 -65t-63 -26h-269q-26 -14 -34 -23t-24 -29q-35 -44 -112 -113q-63 -47 -71 -115t-19 -100
q-8 -39 -32 -66q-25 -25 -78 -25t-94 22q-41 21 -66 53t-39 77t-14 99t45 151l-53 -2q-16 -2 -86 -2t-121 35q-31 16 -52 53q-20 29 -20 77z" />
    <glyph glyph-name="lozenge" unicode="&#x25ca;" horiz-adv-x="1638" 
d="M614 1057q62 0 136 -27q74 -26 110 -26t105 26q70 26 131 27q133 0 235 -125q-73 -41 -109 -114q-72 -148 22 -281q46 -66 122 -95q-43 -94 -80 -149q-117 -176 -215 -178q-37 1 -94 27q-112 52 -233 -2q-58 -26 -95 -25q-101 2 -209 166t-126 343q-17 179 53 277
q47 74 117 115q68 41 130 41zM1012 1145q-82 -100 -191 -96q-16 100 62 194q33 41 86 69t102 31q15 -102 -59 -198z" />
  </font>
</defs>
</svg>
