<?xml version="1.0" standalone="no"?>
<!DOCTYPE svg PUBLIC "-//W3C//DTD SVG 1.1//EN" "http://www.w3.org/Graphics/SVG/1.1/DTD/svg11.dtd" >
<svg xmlns="http://www.w3.org/2000/svg">
<metadata>Generated by IcoMoon</metadata>
<defs>
<font id="icomoon" horiz-adv-x="1024">
<font-face units-per-em="1024" ascent="960" descent="-64" />
<missing-glyph horiz-adv-x="1024" />
<glyph unicode="&#x20;" d="" horiz-adv-x="512" />
<glyph unicode="&#x61;" d="M967.775 894.514c-92.153 17.406-252.026 42.596-336.33 42.596-109.362 0-132.089-8.013-200.202-26.273-56.389-15.074-126.177-54.845-126.177-54.845s-119.74-55.042-159.873-103.681c-37.768-45.814-90.971-141.055-85.027-168.641 5.911-27.62 30.411-43.811 49.788-42.891 40.724 1.872 137.869 122.368 137.869 122.368s129.33 59.443 192.911 59.443c27.258 0 95.339 0.296 127.13 0.296 31.758 0 75.404-32.152 93.598-68.442 14.22-28.441-166.145-142.237-189.003-156.129-16.913-10.279-25.124-30.773-28.901-44.238 1.149 7.258 1.806 14.614 1.806 22.201 0 78.951-64.041 142.992-142.992 142.992-78.984 0-142.992-64.041-142.992-142.992 0-46.865 22.792-88.081 57.604-114.157-9.13-4.795-25.846-15.436-25.846-28.901 0-18.49 0-7.422 0-31.758 0-13.662 9.984-21.872 18.72-26.536l-50.477-132.384c0 0-34.878 0.493-63.614-31.791-28.671-32.25-31.791-63.581-31.791-63.581v-63.581c0 0 1.248-31.791 31.791-31.791h413.18c30.51 0 31.758 31.791 31.758 31.791v63.581c0 0-3.087 31.298-31.758 63.581s-63.614 31.791-63.614 31.791l-50.51 132.384c8.802 4.696 18.72 12.874 18.72 26.536 0 24.368 0 13.235 0 31.758 0 13.465-16.684 24.073-25.846 28.901 25.551 19.147 44.632 46.536 52.973 78.229-0.164-6.667-0.066-68.475 65.026-68.639 28.178-0.066 51.397 7.915 76.488 19.475l401.028 180.169c0 0 29.525 14.023 29.525 47.916s0 230.975 0 230.975-2.66 36.29-44.96 44.27z" />
<glyph unicode="&#x62;" d="M893.718 97.351c0 0-1.051-27.127-27.094-27.127h-352.883c-26.076 0-27.16 27.127-27.16 27.127v54.287c0 0 2.66 26.766 27.16 54.287 24.5 27.554 54.287 27.193 54.287 27.193l43.121 113.041c-7.521 4.007-16.027 10.969-16.027 22.628 0 20.822 0 11.33 0 27.16 0 11.527 14.286 20.559 22.102 24.664-29.722 22.299-49.197 57.473-49.197 97.474 0 67.457 54.681 122.171 122.171 122.171s122.138-54.681 122.138-122.171c0-40.001-19.475-75.174-49.197-97.474 7.816-4.105 22.070-13.169 22.070-24.664 0-15.83 0-6.338 0-27.16 0-11.659-8.539-18.654-15.994-22.628l43.121-113.041c0 0 29.82 0.394 54.287-27.193 24.467-27.554 27.094-54.287 27.094-54.287v-54.287zM159.347 806.104c0 0 1.051 27.127 27.094 27.127h352.883c26.076 0 27.16-27.127 27.16-27.127v-54.287c0 0-2.66-26.733-27.16-54.287-24.5-27.554-54.287-27.193-54.287-27.193l-43.154-113.041c7.521-4.007 16.027-11.002 16.027-22.628 0-20.822 0-11.33 0-27.16 0-11.527-14.286-20.592-22.102-24.697 29.722-22.299 49.197-57.506 49.197-97.474 0-67.457-54.681-122.171-122.171-122.171s-122.138 54.714-122.138 122.171c0 40.001 19.475 75.174 49.197 97.474-7.816 4.105-22.070 13.169-22.070 24.697 0 15.797 0 6.338 0 27.16 0 11.659 8.539 18.654 15.994 22.628l-43.088 113.074c0 0-29.82-0.394-54.287 27.193-24.467 27.521-27.094 54.287-27.094 54.287v54.254z" />
<glyph unicode="&#x63;" d="M990.502 583.898l-329.631 25.452-126.079 305.656c-8.473 20.526-22.365 20.526-30.838 0.033 0 0-0.033-0.033-0.033-0.033l-126.046-305.624-329.631-25.485c-22.168-1.708-26.47-14.91-9.557-29.328l251.731-214.357-77.637-321.355c-5.222-21.61 6.010-29.787 24.96-18.129l281.616 173.174 281.649-173.174c0.033-0.033 0.066-0.033 0.066-0.033 18.917-11.56 30.083-3.416 24.894 18.161v0l-77.67 321.355 251.763 214.357c0 0 0 0 0.033 0.033 16.881 14.385 12.611 27.554-9.59 29.295zM644.746 266.649c0 0-0.657-16.716-16.684-16.716h-217.345c-16.060 0-16.716 16.716-16.716 16.716v33.433c0 0 1.642 16.486 16.716 33.433 15.107 16.979 33.433 16.749 33.433 16.749l26.569 69.624c-4.631 2.463-9.885 6.765-9.885 13.958 0 12.808 0 6.995 0 16.716 0 7.094 8.802 12.677 13.596 15.206-18.326 13.728-30.313 35.403-30.313 60.034 0 41.545 33.663 75.24 75.24 75.24s75.207-33.695 75.207-75.24c0-24.631-11.987-46.307-30.313-60.034 4.828-2.529 13.596-8.112 13.596-15.206 0-9.754 0-3.908 0-16.716 0-7.192-5.255-11.495-9.852-13.958l26.569-69.624c0 0 18.358 0.23 33.433-16.749 15.074-16.979 16.684-33.433 16.684-33.433v-33.433z" />
<glyph unicode="&#x64;" d="M307.466 956.099c-128.788 12.165-243.036-82.34-255.212-211.087-12.145-128.758 82.35-243.016 211.067-255.201 128.819-12.155 243.016 82.34 255.242 211.108 12.134 128.758-82.381 243.016-211.098 255.181zM390.451 713.021c-5.499-58.020-56.955-100.598-114.995-95.119-57.989 5.499-100.588 56.975-95.109 114.985 5.489 58.020 56.965 100.608 114.995 95.119 57.999-5.478 100.588-56.965 95.109-114.985zM310.364 722.954c0-13.782-11.173-24.955-24.955-24.955s-24.955 11.173-24.955 24.955c0 13.782 11.173 24.955 24.955 24.955 13.782 0 24.955-11.173 24.955-24.955zM596.357 602.737l77.292-99.85 9.083 13.302-51.773 86.518zM341.832 412.375l16.148 3.359 19.18 5.581 20.941 7.199 21.576 9.277 17.736 9.748 15.022 8.315 13.107 8.786 12.79 9.595 13.588 10.865 12.626 11.663 9.585 8.96 9.585 10.875 7.68 8.786 7.834 9.759 9.748 14.223 9.431 14.868 8.468 15.34 5.12 10.23 4.137 8.468 280.044-350.413-23.337-19.169 11.837-14.254 22.774 18.719 7.7-8.745-22.815-19.169 11.837-14.254 22.682 18.504 8.735-10.65-22.354-18.729 11.817-14.254 22.047 18.268 8.069-9.8-21.77-18.504 11.827-14.244 21.637 17.613 34.14-42.404c0 0 15.34-18.268-4.055-40.899l-36.045-39.66 11.223-13.578-16.548-13.701 33.608-47.227c0 0-3.328-12.718-26.665-22.18l-39.926 41.923-16.261-13.527-10.404 12.268-38.144-24.535c0 0-28.355-18.094-44.964-0.625l-40.294 42.824 20.91 17.51-11.848 14.254-21.627-18.104-8.52 9.492 21.821 18.668-11.837 14.223-22.907-19.61-10.056 10.465 23.941 20.050-11.827 14.244-24.914-20.439-8.079 8.54 25.324 21.115-11.817 14.244-26.481-21.709-312.781 331.561zM53.033 544.195l29.839 21.309c0 0 63.939-87.153 172.288-96.758 0 0 102.287-15.657 184.75 50.514 0 0 49.869 30.689 82.78 107.397 0 0 31.334 68.065 12.493 151.521 0 0-6.717 56.576-61.071 116.992l27.167 27.167c0 0 54.354-52.736 72.561-143.514 0 0 18.852-84.388-16.323-166.543 0 0-22.999-62.331-75.745-107.407 0 0-57.211-59.453-158.874-73.523 0 0-68.721-11.51-145.756 18.227 0.020 0-74.998 28.129-124.109 94.618zM564.91 866.406c0 0 21.299-38.789 27.269-82.248l124.416 99.625-38.062 53.975-113.623-71.352z" />
<glyph unicode="&#x65;" d="M297.141 479.649c-3.378 3.641-8.499 4.894-13.058 3.211-4.655-1.635-7.806-5.873-8.093-10.767l-14.312-247.176c-0.31-5.801 3.45-10.886 8.809-12.402 0.836-0.263 1.755-0.43 2.674-0.43l255.161-14.503c4.942-0.275 9.585 2.447 11.698 6.947 2.125 4.512 1.313 9.824-2.029 13.488l-240.85 261.631zM447.347 281.304l-16.329-56.948c-1.862-6.469-8.618-10.194-15.087-8.367-6.469 1.85-10.206 8.594-8.332 15.075l7.066 24.577-55.253 15.816-7.078-24.601c-1.862-6.469-8.594-10.217-15.040-8.343-6.469 1.826-10.206 8.558-8.343 15.028l7.019 24.625-39.378 11.244c-6.469 1.862-10.206 8.594-8.332 15.064 1.826 6.469 8.558 10.206 15.028 8.355l39.425-11.244 15.493 54.071c1.862 6.458 8.618 10.194 15.064 8.367 6.458-1.874 10.206-8.618 8.355-15.087l-15.529-54.071 55.277-15.804 2.566 8.952c1.862 6.446 8.582 10.206 15.064 8.355 6.446-1.85 10.182-8.582 8.343-15.064zM625.735 606.567l-16.341-57.091 55.253-15.792 16.388 57.067zM704.138 671.333l-16.34-57.125-55.278 15.812 16.34 57.125 55.278-15.812zM586.285 468.978l55.277-15.792 16.388 57.055-55.277 15.804zM593.195 790.093l55.266-15.808-16.32-57.056-55.266 15.808 16.32 57.056zM625.348 693.8l-16.355-57.114-55.22 15.812 16.355 57.114 55.22-15.812zM727.229 751.82l-55.277 15.792-16.388-57.067 55.301-15.827zM805.913 729.32l-55.277 15.816-16.388-57.103 55.277-15.804zM782.839 648.84l-16.34-57.125-55.278 15.812 16.34 57.125 55.278-15.812zM743.355 511.197l-55.272 15.803 16.318 57.074 55.272-15.803-16.318-57.074zM664.981 446.49l55.253-15.816 16.4 57.091-55.265 15.804zM530.376 659.182l16.4 57.127-55.265 15.78-16.4-57.103zM357.244 857.632l55.237-15.793-16.321-57.085-55.237 15.793 16.321 57.085zM278.555 880.082l55.283-15.806-16.328-57.108-55.283 15.806 16.328 57.108zM1075.111 919.13c-87.409 24.995-139.738 10.003-141.958 9.346-3.963-1.194-7.066-4.321-8.212-8.332l-41.932-146.076-648.581 185.454c-6.434 1.862-13.178-1.898-15.028-8.367l-33.314-116.128-35.642 38.721c-3.33 3.617-8.511 4.894-13.070 3.187-4.631-1.623-7.782-5.873-8.069-10.767l-16.639-287.043-112.201-391.151c-1.826-6.469 1.91-13.202 8.367-15.075l79.018-22.595-4.428-76.595c-0.322-5.801 3.45-10.886 8.749-12.426 0.871-0.251 1.779-0.394 2.71-0.43l381.519-21.64 320.071-91.539c139.117-39.772 159.588 31.559 170.557 69.923l218.923 763.205c13.906 48.449-23.777 113.418-110.84 138.329zM235.264 817.553l23.264 80.964c1.85 6.458 8.594 10.206 15.064 8.355l550.751-157.475c6.434-1.862 10.194-8.618 8.343-15.064l-122.884-428.44c-1.862-6.469-8.618-10.229-15.087-8.379-6.446 1.886-10.194 8.63-8.343 15.075l27.143 94.666-55.253 15.804-13.727-47.876c-1.886-6.469-8.594-10.229-15.064-8.367-6.469 1.85-10.206 8.594-8.367 15.064l13.751 47.888-66.986 19.146c-6.469 1.862-10.206 8.582-8.332 15.064l19.731 68.801-55.277 15.804-9.621-33.529c-1.874-6.469-8.618-10.194-15.087-8.355-6.458 1.838-10.194 8.582-8.343 15.052l9.609 33.529-66.927 19.158c-6.469 1.838-10.206 8.606-8.367 15.040l19.731 68.801-55.289 15.827-6.207-21.676c-1.838-6.469-8.582-10.229-15.052-8.367-6.493 1.85-10.206 8.606-8.343 15.075l29.292 102.21-55.241 15.804-15.923-55.551c-1.862-6.469-8.594-10.229-15.075-8.379-6.469 1.862-10.206 8.618-8.343 15.075l15.911 55.563-64.599 18.477c-0.859 0.060-1.671-0.048-2.507 0.203-6.458 1.79-10.182 8.546-8.343 15.016zM100.969 260.977l-13.273-46.265c-1.814-6.446-8.57-10.194-15.040-8.355-6.469 1.85-10.194 8.606-8.355 15.087l13.261 46.229c1.85 6.446 8.618 10.206 15.064 8.367 6.469-1.85 10.206-8.582 8.343-15.064zM108.453 84.511l43.52 751.567 92.16-100.145-27.227-24.326c-5.037-4.476-5.467-12.187-1.003-17.188 1.599-1.814 3.581-3.008 5.717-3.617 3.891-1.11 8.248-0.263 11.483 2.638l27.549 24.577 31.178-33.875-27.382-24.445c-5.061-4.488-5.491-12.187-1.015-17.188 1.623-1.826 3.593-3.008 5.717-3.617 3.879-1.122 8.272-0.251 11.483 2.614l27.692 24.72 31.201-33.911-27.549-24.565c-5.037-4.488-5.455-12.187-1.003-17.2 1.611-1.79 3.617-2.984 5.729-3.605 3.855-1.122 8.224-0.263 11.471 2.626l27.8 24.827 31.213-33.887-27.668-24.696c-5.049-4.464-5.467-12.187-0.991-17.188 1.588-1.802 3.581-2.984 5.706-3.617 3.891-1.11 8.236-0.263 11.483 2.626l27.967 24.983 31.201-33.911-27.835-24.804c-5.013-4.464-5.455-12.175-0.991-17.2 1.588-1.79 3.605-2.984 5.717-3.557 3.903-1.122 8.26-0.275 11.495 2.59l28.098 25.090 31.201-33.911-27.967-24.923c-5.025-4.5-5.443-12.187-0.979-17.236 1.611-1.755 3.581-2.948 5.706-3.569 3.891-1.122 8.26-0.263 11.483 2.614l28.217 25.186 31.201-33.863-28.074-25.078c-5.025-4.476-5.455-12.175-0.991-17.188 1.599-1.802 3.593-2.972 5.717-3.593 3.891-1.11 8.26-0.275 11.471 2.602l28.396 25.317 31.189-33.887-28.193-25.15c-5.037-4.476-5.467-12.187-0.991-17.188 1.599-1.779 3.593-2.984 5.694-3.617 3.891-1.086 8.26-0.251 11.495 2.65l28.48 25.4 31.178-33.887-28.337-25.257c-5.013-4.5-5.491-12.187-1.003-17.212 1.599-1.814 3.569-3.008 5.717-3.593 3.891-1.11 8.236-0.263 11.495 2.614l28.635 25.579 31.178-33.887-28.468-25.424c-5.073-4.5-5.455-12.187-0.991-17.176 1.588-1.802 3.593-2.984 5.706-3.617 3.903-1.146 8.272-0.275 11.483 2.626l28.766 25.663 33.099-35.952-16.878-58.882c-1.241-4.261-0.048-8.857 3.103-11.96 3.127-3.151 7.711-4.309 12.008-3.080 0.334 0.084 24.995 6.625 67.679 2.316l95.514-103.738-775.857 43.985zM1162.556 787.509l-203.072-708.095c-16.090 31.822-50.669 61.508-103.261 76.535-56.435 16.138-98.271 15.625-121.416 13.046l211.534 737.494c15.434 2.721 58.691 7.341 122.072-10.767 79.794-22.834 103.105-77.037 94.141-108.214zM468.023 738.808l-16.334-57.131-55.272 15.803 16.334 57.131 55.272-15.803zM491.189 819.295l-55.265 15.816-16.4-57.079 55.301-15.804zM569.861 796.807l-55.265 15.792-16.377-57.067 55.265-15.804zM547.099 629.055l-16.4-57.079 55.265-15.78 16.377 57.079zM507.312 578.638l-55.278 15.817 16.333 57.079 55.278-15.817-16.333-57.079z" horiz-adv-x="1189" />
<glyph unicode="&#x66;" d="M944.496 960c-34.615-31.238-56.294-52.432-56.294-52.432l-319.111-319.099c-22.967-22.979-34.639-53.161-34.991-83.44h293.885l305.484 306.128c-53.938 59.61-117.799 110.099-188.972 148.843zM833.571 603.044h-134.475c-3.182 0-6.024 1.275-8.137 3.364-2.089 2.065-3.34 4.931-3.34 8.113 0 6.328 5.125 11.465 11.478 11.465h134.475c6.328 0 11.478-5.138 11.478-11.465 0-6.352-5.15-11.478-11.478-11.478zM922.67 692.143h-134.475c-3.182 0-6.048 1.287-8.137 3.364-2.065 2.065-3.34 4.955-3.34 8.113 0 6.328 5.15 11.478 11.453 11.478h134.499c6.328 0 11.478-5.15 11.478-11.478 0-6.34-5.15-11.453-11.478-11.478zM1011.77 781.242h-134.487c-3.158 0-6.048 1.287-8.113 3.364-2.089 2.065-3.364 4.955-3.364 8.113 0 6.328 5.15 11.478 11.478 11.478h134.475c6.328 0 11.478-5.15 11.478-11.478 0.012-6.34-5.138-11.453-11.465-11.478zM196.854-45.381c65.671 20.562 142.333 61.76 221.279 140.718 217.623 217.623 61.128 163.819 110.026 212.729 48.91 48.898 229.866 171.167 229.866 171.167l-229.866-4.882-528.16-528.184c0 0 24.923-8.441 66.618-9.935v-0.073h2.053c6.692-0.206 13.749-0.231 21.242 0h1109.541c4.032 6.085 7.967 12.243 11.83 18.461h-1014.429zM231.748 126.697l176.984 177.009c12.522 12.522 29.987 15.534 38.781 6.716 8.854-8.818 5.83-26.259-6.692-38.781l-176.972-177.045c-12.51-12.473-29.999-15.51-38.817-6.704-8.83 8.842-5.806 26.307 6.716 38.805z" horiz-adv-x="1211" />
<glyph unicode="&#x67;" d="M717.906 920.14c-133.755 60.011-369.842 59.921-494.345-53.582-108.601-99.028-133.072-239.563-133.072-239.563s-11.211-52.206-11.211-69.534c0-16.575 18.654-23.094 16.525-31.613-2.13-8.508-23.034-32.869-39.006-59.499-15.972-26.62-56.797-85.778-56.797-101.75s9.553-21.879 28.71-28.268c19.167-6.379 34.084-11.693 37.279-19.157 3.174-7.444-9.141-28.73-9.804-43.919-0.563-12.928 4.169-14.385 13.883-18.152 12.024-4.691 30.498-5.274 30.498-5.274s-41.146-7.785-37.048-24.621c4.239-17.479 29.021-21.035 31.211-34.707 1.095-6.911-20.945-42.301-18.052-76.737 3.787-44.953 46.36-65.084 113.885-54.225 64.341 10.317 94.598 19.93 102.875-15.56 5.204-22.371 4.651-60.041 14.234-102.634 0.382-1.708 0.794-3.556 1.185-5.334 0 0 444.922 1.889 444.922 178.899 0 53.924 5.354 133.986 44.049 176.568 48.479 53.381 112.87 128.973 127.848 242.416 18.664 141.158-38.615 310.333-207.769 386.246zM756.882 532.718c-4.832 4.892-57.199 21.256-56.787-39.268 0.392-60.524 10.055-78.525 10.055-78.525s-32.226-16.364-103.136-16.746c-26.58-0.141-46.952 8.77-41.558 37.027 5.726 29.976 12.928 63.316-20.342 81.368-21.326 11.572-47.424 6.921-63.778-10.558-15.641-16.736-20.352-39.73-14.526-61.629 16.113-60.544-29.011-44.18-29.011-44.18l-103.136 8.197 7.685 85.055c4.43 88.349-44.752 57.249-44.752 57.249-85.396-29.433-85.396 49.092-85.396 49.092 6.439 67.083 67.676 52.357 67.676 52.357 82.192-35.993 59.63 35.993 59.63 35.993l-11.291 98.154 107.978 9.814c0 0 41.889 1.647 27.384-35.993-14.496-37.62-4.832-92.207 48.349-91.906 53.191 0.301 58.012 55.913 48.349 93.553s30.618 34.355 30.618 34.355l117.632-9.814-8.046-104.713c0 0-8.056-85.075 48.349-39.247 0 0 77.33 19.468 82.172-48.349s-69.293-66.199-74.115-61.287z" horiz-adv-x="929" />
<glyph unicode="&#x68;" d="M284.421 726.172c0 0-19.906 18.163-19.034-7.791 0.888-26.014 6.946-44.16 6.946-44.16s2.58-30.32 30.303-44.151c0 0 5.211-51.968 26.817-73.643 21.666-21.64 56.343-71.020 105.697-69.26 49.371-1.76 83.963 47.62 105.637 69.26 21.657 21.674 26.851 73.643 26.851 73.643 27.697 13.831 30.303 44.151 30.303 44.151s6.091 18.146 6.971 44.16c0.854 25.954-19.103 7.791-19.103 7.791s40.683 233.828-150.668 233.828c-191.42 0-150.72-233.828-150.72-233.828zM435.141-64c183.739 0 344.796 96.838 435.115 242.201-20.521 81.955-47.876 177.759-49.756 183.38-2.572 7.826-10.397 27.689-22.477 31.208-12.166 3.451-210.462 73.583-237.339 84.851 0 0-33.994-189.728-65.808-352.178-8.261 69.106-19.043 136.786-23.357 159.912-7.791 41.571-13.011 65.843-13.011 65.843 2.717 12.157 13.618 46.791 18.257 61.383 1.188 3.631 2.102 6.578-2.819 11.482l-15.566 22.554c-1.35 1.307-3.99 2.435-5.92 2.435h-34.626c-1.905 0-4.536-1.128-5.963-2.435l-15.497-22.554c-4.981-4.904-3.998-7.851-2.845-11.482 4.639-14.592 15.497-49.226 18.283-61.383 0 0-5.211-24.271-12.994-65.843-4.374-23.127-15.13-90.806-23.391-159.912-31.832 162.45-65.851 352.178-65.851 352.178-26.86-11.26-225.157-81.391-237.28-84.851-12.123-3.52-19.914-23.383-22.52-31.208-1.914-5.63-29.269-101.4-49.773-183.346 90.328-145.38 251.393-242.235 435.141-242.235z" horiz-adv-x="870" />
<glyph unicode="&#x69;" d="M172.75 886.314c-274.539-88.186-87.086-285.235-82.512-290.674-57.252 212.201 48.49 197.113 82.512 290.674zM358.441 899.339c110.102-3.622 114.312-61.484 114.227-69.295-1.143-0.63-0.833-0.759-0.021-0.598 3.793 0.844 23.476 12.534 3.783 55.521 6.871-1.966-65.341 90.388-106.277 39.194-25.485-31.842-13.186-22.995-11.711-24.822zM207.382 761.989l4.883 8.174c0 0 20.366 73.633 71.859 84.137 0 0-52.593 42.154-87.257-24.181-15.643-29.908 4.531-63.599 10.514-68.13zM206.815 609.167c-4.552-1.282-34.514-10.664 16.146-22.055 90.184-20.292 187.293 123.779 199.667 136.634 74.915 115.616-113.126 96.179-113.126 96.179l11.455-23.305c103.552-170.239-129.688-192.679-114.141-187.453zM1073.569 164.635l-91.531-19.105c-10.162 39.888-40.658 92.834-130.65 94.779 0 0-247.313 6.315-235.602 53.63 8.473 34.289 107.538 201.729 104.791 212.788l-98.754-107.206c34.396 61.43 66.431 182.762-13.838 416.163-9.852 83.057 45.498 142.35 45.498 142.35-118.672 17.791-128.545-90.943-128.545-90.943-51.397-316.383-425.139-367.801-425.139-367.801-99.417-8.292-82.95 101.821-84.97 87.022 0 0-0.064 11.839-7.982-5.984-19.116-43.051 7.512-86.167 10.814-100.859 24.651-88.998 179.033-108.937 179.033-108.937 105.026-119.687 217.543-114.462 289.071-89.394l98.487-9.157 3.441-0.994 93.39-46.439c0 0-78.826-66.217-110.358-100.902s-108.147-129.282-153.399-97.739c0 0 222.459-245.582 568.9 75.033l96.147 3.975-8.805 59.721zM596.799 480.473l-13.421 184.579c0.021 0 47.037-132.050 13.421-184.579z" horiz-adv-x="1082" />
<glyph unicode="&#x6a;" d="M1057.621-59.275c-40.399 7.398-80.211 16.609-119.155 28.287-91.509 27.418-175.653 60.952-251.095 106.511-22.41-36.532-74.085-106.836-151.744-130.594-106.717-32.676-222.026 34.913-222.026 34.913s53.033 135.808 159.739 168.472c36.575 11.221 74.661 8.842 108.966 0.902-58.138 47.33-106.717 99.743-144.998 156.512-34.033-23.399-129.42-80.668-229.066-65.242-124.358 19.238-208.241 144.498-208.241 144.498s120.556 111.812 244.947 92.563c57.617-8.908 105.935-44.386 141.228-79.896-15.36 34.479-26.929 69.642-34.631 105.413-40.758 35.337-108.781 106.597-122.772 198.367-20.27 132.962 80.494 258.569 80.494 258.569s152.623-87.012 172.861-219.941c14.241-93.497-40.801-184.864-74.671-230.782 16.359-71.738 49.741-139.566 97.136-201.343-14.469 39.313-23.084 84.839-13.774 129.974 24.909 120.882 168.95 193.338 168.95 193.338s86.349-119.948 61.419-240.797c-17.826-86.23-87.435-149.604-125.857-178.857 51.533-45.374 111.616-85.686 178.564-119.894-8.397 18.337-14.513 38.802-16.001 60.43-6.116 88.011 66.557 165.018 66.557 165.018s95.072-64.428 101.166-152.428c3.205-46.384-18.945-88.5-40.627-119.264 66.166-24.615 137.176-42.908 211.641-54.988-12.199-17.229-25.213-33.816-39.009-49.741z" horiz-adv-x="1097" />
<glyph unicode="&#x6b;" d="M597.452 432.856c1.468 2.131 2.954 4.199 3.966 5.775 16.017 25.131 24.952 47.845 29.59 64.614 18.954 12.239 38.901 36.090 50.602 82.135 6.786 26.68 11.872 60.433-9.096 84.543-0.528 0.591-1.012 1.137-1.522 1.728 18.801 169.176-99.898 254.632-169.597 276.881l-1.003 0.278-0.949 0.295c-26.295 7.225-51.587 10.896-75.116 10.896-5.524 0-10.735-0.188-15.757-0.564-5.121 0.403-10.35 0.564-15.641 0.564-23.591 0-48.848-3.671-75.134-10.896l-0.94-0.295-0.994-0.278c-19.956-6.348-43.879-18.085-67.479-35.257-35.284 37.755-83.621 14.862-83.621 14.862 55.312-21.962 50.746-42.16 50.307-43.682-44.783-45.83-79.619-115.342-68.822-212.813-0.537-0.591-1.021-1.137-1.513-1.728-21.004-24.11-15.874-57.863-9.114-84.543 11.737-46.045 31.586-69.914 50.611-82.135 5.014-18.13 15.399-43.243 33.959-70.782-93.595-50.674-246.226-156.499-216.394-296.622l2.050-4.763c94.248-118.842 239.914-195.068 403.396-195.068 163.786 0 309.702 76.512 403.942 195.74l1.352 3.465c30.53 140.849-123.426 247.139-217.084 297.652zM182.149 595.272c-4.969 19.464-5.336 31.479-3.608 39.151l20.216-18.9 19.634-61.131c0 0-13.206 171.665 79.252 184.862 0 0 98.179-101.285 220.092-123.247 0 0-26.402 48.418-48.418 92.431 0 0 70.433-79.252 132.075-92.431 0 0 8.765 11.227 18.837 29.849 1.352 0.439 3.241 0.931 5.685 0.931 8.693 0 20.547-7.1 9.195-51.516-14.531-57.183-39.34-60.692-45.168-60.692-0.815 0-1.271 0.090-1.271 0.090s-1.083-15.14-9.857-37.773c-12.31-33.717-39.259-82.117-97.436-111.725-14.092-7.673-28.274-13.116-42.473-16.348-0.421-0.090-0.788-0.242-1.191-0.367l-0.036 0.072c-11.317-2.444-22.696-3.581-34.048-3.214-53.458 2.059-95.69 35.373-116.649 55.518-0.036 0.331-0.063 0.734-0.063 1.083-55.106 58.32-58.383 112.754-58.383 112.754s-0.439-0.090-1.28-0.090c-5.828-0.009-30.575 3.51-45.105 60.692zM776.539 155.931c-86.298-107.436-218.767-176.204-367.288-176.204-148.432 0-280.829 68.679-367.136 175.998h-0.063c-13.447 110.57 122.397 200.252 203.609 243.567 20.341-20.843 98.206-91.365 202.562-70.326 3.527 0.752 6.939 1.612 10.368 2.534 3.116 0.806 6.294 1.728 9.428 2.713 5.999 1.925 11.818 4.038 17.396 6.383 4.682 2.014 9.392 4.020 14.038 6.366 3.196 1.629 6.258 3.322 9.338 5.085 4.915 2.713 9.759 5.667 14.602 8.846 19.598 12.919 35.409 27.423 48.069 40.745 13.761-6.903 27.817-14.934 38.928-23.627 0.072-0.072 0.107-0.125 0.161-0.188 79.377-47.925 177.305-127.195 165.989-221.891z" horiz-adv-x="818" />
<glyph unicode="&#x6c;" d="M454.799 573.781c22.319-10.994 41.697-26.847 56.905-46.207 39.294-8.815 77.117-23.072 93.58-46.234 40.791-57.362-124.947-78.273-211.38-83.286s-207.354 23.44-241.967 61.595c-22.167 24.435 36.146 51.749 105.56 68.123 16.616 20.050 37.052 36.155 59.55 47.086-113.101-12.007-321.011-57.147-316.985-173.010 1.937-55.47 74.122-71.575 157.434-74.417 5.748-59.478 6.026-236.192-16.015-299.365-22.292-63.836 124.445-92.468 228.659-92.065 101.767 0.43 207.766 25.108 236.021 59.873 27.466 33.806-34.855 129.986-11.074 340.003 82.82 8.447 153.094 30.847 155.291 86.783 3.309 85.716-161.819 136.272-295.581 151.122zM369.657 261.235c-83.662-2.583-181.17 24.328-198.369 41.087l-2.511 24.794c74.695-1.497 156.053 6.573 202.772 6.026 50.502-0.565 133.609-4.77 209.165 1.426l-2.116-29.026c-17.405-27.618-138.2-42.118-208.941-44.306zM335.17 563.495c-45.266-17.997-81.735-59.245-95.714-105.739-6.51-17.441 33.097-34.057 87.366-38.962 15.047-1.345 31.178-1.811 47.803-1.157 81.483 3.3 155.058 12.895 154.224 21.718-4.95 53.372-38.702 99.391-86.684 120.903 20.884 29.654 45.947 95.32 64.518 173.674 26.139 110.411 29.466 204.179 7.38 209.398-22.050 5.237-61.137-80.040-87.294-190.46-18.122-76.623-25.251-145.185-20.535-181.744-3.676 0.61-7.407 1.175-11.155 1.506-9.057 0.825-18.006 0.592-26.811-0.475 11.72 34.326 17.306 104.376 13.074 184.811-5.972 113.316-29.152 204.215-51.821 203.014-22.633-1.193-36.137-94.010-30.183-207.318 4.555-86.415 19.118-159.775 35.832-189.169zM449.778 488.899c11.63-1.058 20.176-11.307 19.127-22.929-1.040-11.603-11.272-20.176-22.911-19.127-11.621 1.049-20.185 11.316-19.136 22.911 1.058 11.621 11.316 20.194 22.92 19.145zM348.638 476.82c-1.040-11.594-11.307-20.167-22.911-19.118-11.612 1.049-20.194 11.307-19.145 22.929s11.334 20.185 22.938 19.136c11.603-1.058 20.185-11.316 19.118-22.947z" horiz-adv-x="750" />
<glyph unicode="&#x6d;" d="M919.237 516.69c18.654 141.177-38.624 310.35-207.777 386.253-133.743 60.031-369.829 59.92-494.34-53.582-108.59-99.017-133.070-239.551-133.070-239.551s-11.211-52.206-11.211-69.534c0-16.575 18.654-23.094 16.525-31.613-2.13-8.508-23.024-32.868-39.006-59.488-15.962-26.62-56.786-85.787-56.786-101.759 0-15.962 9.553-21.869 28.72-28.257 19.166-6.379 34.074-11.693 37.268-19.166 3.184-7.434-9.131-28.72-9.794-43.908-0.552-12.938 4.179-14.395 13.883-18.152 12.034-4.701 30.498-5.274 30.498-5.274s-41.146-7.785-37.057-24.621c4.239-17.479 29.021-21.035 31.221-34.717 1.095-6.911-20.944-42.301-18.051-76.736 3.777-44.953 46.369-65.074 113.884-54.225 64.34 10.327 94.597 19.93 102.874-15.56 5.203-22.361 4.651-60.031 14.234-102.633 0.392-1.698 0.794-3.546 1.185-5.334 0 0 444.927 1.889 444.927 178.907 0 53.913 5.354 133.985 44.049 176.557 48.459 53.371 112.859 128.962 127.827 242.394zM715.347 404.785c0 0-6.459-70.609-58.293-79.7-44.42-7.765-73.883 34.988-73.883 34.988l-14.576-68.991h-31.080c0 0-28.187 103.989-47.625 121.488s-49.584 22.351-49.584 22.351-40.814 2.923-67.063 29.162c-26.238 26.248-1.939 58.323-1.939 58.323s-33.049-1.949-100.122 12.627c-67.053 14.586-46.65 57.359-46.65 57.359s-17.499-2.923-32.065 15.54c-10.357 13.119-17.921 45.224 0.964 82.613 16.926 33.481 46.63 45.114 46.63 45.114s-10.99 13.953 12.195 33.461c12.115 10.176 33.501 9.875 33.501 9.875s5.234 22.441 37.429 36.997c36.475 16.474 60.744 2.853 60.744 2.853s9.744 21.346 37.921 31.070c28.187 9.714 56.354-6.771 56.354-6.771s19.066 17.258 54.064 17.258c34.978 0 47.987-18.232 47.987-18.232s21.095 10.829 46.671 1.949c24.159-8.398 31.151-31.824 31.151-31.824s17.459 12.386 41.728 2.672c24.31-9.724 34.054-35.972 34.054-35.972s16.746 2.451 33.401-12.346c12.356-10.99 8.378-31.392 8.378-31.392s20.613-6.851 32.939-31.522c11.492-22.974-4.772-42.351-4.772-42.351s34.024-25.264 38.885-91.352c5.927-80.634-45.666-96.224-45.666-96.224s10.196-25.595-7.775-53.451c-24.48-37.931-73.903-15.57-73.903-15.57z" horiz-adv-x="929" />
<glyph unicode="&#x6e;" d="M768.322-1.365c16.119-23.397 19.359-43.266 19.359-46.605 0-8.886-110.76-16.031-247.391-16.031-136.631 0-247.402 7.167-247.402 16.031 0 3.339 3.228 23.208 19.359 46.605-279.508 118.459-312.245 443.929-312.245 471.796 0 34.213 241.889 61.903 540.289 61.903 298.412 0 540.289-27.69 540.289-61.903 0-27.868-32.738-353.337-312.257-471.796zM1136.868 833.964c-7.422 40.415-30.164 75.515-64.022 98.834-25.804 17.794-55.957 27.202-87.186 27.202-50.71 0-98.513-24.628-126.846-66.574-25.261-37.364-23.541-110.494-50.233-163.966-10.983-22.010-23.918-43.576-38.706-63.811-11.46-15.631-23.108-31.107-34.746-46.594-3.495-4.615-4.116-10.783-1.675-16.008 2.463-5.236 7.633-8.675 13.39-8.953 67.328-3.151 127.922-7.777 180.085-13.767l11.393-1.365c0.643-0.089 1.276-0.111 1.908-0.111 4.77 0 9.319 2.208 12.27 6.035 7.699 9.862 15.764 19.592 24.218 28.456 38.507 40.448 111.626 69.58 135.51 105.413 22.776 34.246 32.050 74.783 24.639 115.209z" horiz-adv-x="1139" />
<glyph unicode="&#x6f;" d="M325.348 216.172c0-14.246-11.549-25.795-25.795-25.795-14.246 0-25.795 11.549-25.795 25.795 0 14.246 11.549 25.795 25.795 25.795 14.246 0 25.795-11.549 25.795-25.795zM418.937 235.426c0-10.779-8.738-19.517-19.517-19.517s-19.517 8.738-19.517 19.517c0 10.779 8.738 19.517 19.517 19.517 10.779 0 19.517-8.738 19.517-19.517zM392.274 128.296c0-9.691-7.856-17.548-17.548-17.548-9.691 0-17.548 7.856-17.548 17.548 0 9.691 7.856 17.548 17.548 17.548 9.691 0 17.548-7.856 17.548-17.548zM703.263 33.079c-21.477 38.674-65.269 107.042-111 176.259-19.108 28.886-38.566 57.996-57.041 85.439h-312.227c-33.351-49.466-69.929-104.449-101.593-153.603-28.067-43.597-52.361-82.826-66.526-108.534-2.564-4.007-6.317-15.54-5.888-18.796 0-8.696 3.285-16.066 8.072-21.194 4.894-5.099 10.548-7.624 16.895-7.663h610.483c6.347 0.039 12.001 2.564 16.885 7.663 4.806 5.118 8.092 12.498 8.092 21.194 0.429 3.324-3.412 14.935-6.152 19.234zM399.42 267.208c17.558 0 31.772-14.224 31.772-31.781s-14.214-31.801-31.772-31.801-31.791 14.243-31.791 31.801 14.233 31.781 31.791 31.781zM299.553 173.297c-23.68 0-42.875 19.195-42.875 42.856 0 23.68 19.205 42.866 42.875 42.866 23.67 0 42.856-19.195 42.856-42.866-0.010-23.66-19.195-42.856-42.856-42.856zM346.153 128.286c0 15.783 12.79 28.584 28.574 28.584s28.584-12.8 28.584-28.584c0-15.774-12.8-28.574-28.584-28.574s-28.574 12.8-28.574 28.574zM402.715 22.853c-12.332 0-22.325 10.002-22.325 22.325s9.993 22.315 22.325 22.315 22.325-9.993 22.325-22.315-10.002-22.325-22.325-22.325zM463.86 128.862c-18.542 0-33.585 15.042-33.585 33.585s15.042 33.585 33.585 33.585 33.575-15.042 33.575-33.585-15.033-33.585-33.575-33.585zM416.013 45.168c0-7.344-5.953-13.297-13.297-13.297-7.344 0-13.297 5.953-13.297 13.297 0 7.344 5.953 13.297 13.297 13.297 7.344 0 13.297-5.953 13.297-13.297zM485.2 162.437c0-11.786-9.554-21.34-21.34-21.34s-21.34 9.554-21.34 21.34c0 11.786 9.554 21.34 21.34 21.34 11.786 0 21.34-9.554 21.34-21.34zM746.070 56.905v0c-30.67 55.081-98.522 158.419-159.004 248.557-52.546 78.293-99.38 146.33-110.708 162.777v127.047c11.328 5.918 19.049 17.772 19.079 31.469-0.019 19.615-15.9 35.496-35.535 35.505h-161.451c-19.605 0-35.496-15.881-35.496-35.505 0.010-13.697 7.741-25.561 19.088-31.479v-127.047c-11.387-16.456-58.357-84.542-111.030-162.913-60.579-90.235-128.5-193.68-159.053-248.995-5.245-9.778-11.786-25.142-11.962-42.456 0-21.194 8.053-40.575 21.33-54.72 13.21-14.136 31.947-23.154 52.624-23.134h610.483c0 0 0.039 0 0.058 0 20.629 0 39.346 9.008 52.566 23.134 13.268 14.146 21.33 33.526 21.33 54.72-0.195 17.636-7 33.214-12.323 43.041zM715.615-20.744c-8.228-8.735-19.118-13.834-31.177-13.853h-610.483c-12.079 0.019-22.978 5.118-31.206 13.853-8.17 8.735-13.366 20.911-13.366 34.608-0.175 8.881 4.679 21.925 8.326 28.252 29.334 53.19 97.342 156.966 157.727 246.812 30.231 44.971 58.571 86.57 79.365 116.918 20.794 30.358 33.985 49.378 34.033 49.427l2.613 3.783v160.525l-13.512 1.111c-3.1 0.253-5.606 2.886-5.586 6.074 0.010 3.373 2.739 6.103 6.113 6.103h161.461c3.393 0 6.122-2.73 6.122-6.103 0.029-3.188-2.486-5.82-5.576-6.074l-13.512-1.111v-160.495l2.622-3.773c0.029-0.058 13.18-19.079 33.916-49.407 62.149-90.82 192.54-283.497 236.897-363.291 3.763-6.502 8.803-19.702 8.628-28.749-0.019-13.707-5.235-25.883-13.405-34.608zM375.233 763.912c-18.669 0-33.79-15.12-33.79-33.77 0-18.659 15.12-33.78 33.79-33.78 18.65 0 33.76 15.12 33.76 33.78 0 18.64-15.111 33.77-33.76 33.77zM375.233 709.805c-11.221 0-20.336 9.096-20.336 20.317 0 11.231 9.115 20.326 20.336 20.326 11.211 0 20.307-9.096 20.307-20.326 0-11.211-9.086-20.317-20.307-20.317zM454.404 866.547c-27.258 0-49.358-22.101-49.358-49.358 0-27.258 22.11-49.358 49.358-49.358s49.358 22.101 49.358 49.358c0 27.248-22.101 49.358-49.358 49.358zM454.404 787.494c-16.388 0-29.695 13.288-29.695 29.685 0 16.407 13.307 29.695 29.695 29.695 16.417 0 29.695-13.288 29.695-29.695 0-16.398-13.278-29.685-29.695-29.685zM324.598 960c-37.28 0-67.521-30.241-67.521-67.521 0-37.299 30.241-67.53 67.521-67.53 37.299 0 67.55 30.231 67.55 67.53 0 37.28-30.251 67.521-67.55 67.521zM324.617 845.568c-25.912 0-46.921 20.989-46.921 46.902 0 25.922 21.009 46.921 46.921 46.921 25.903 0 46.911-20.999 46.911-46.921-0.010-25.912-21.009-46.902-46.911-46.902z" horiz-adv-x="758" />
<glyph unicode="&#x70;" d="M396.055 633.027c90.266 0 163.502 73.174 163.502 163.471 0 90.317-73.246 163.502-163.502 163.502-90.307 0-163.481-73.164-163.481-163.502-0.010-90.297 73.174-163.471 163.481-163.471zM168.043 192.084l633.659-2.112v13.082l-633.659 55.633zM137.308 261.371l-137.307 12.082v-80.817l137.307-0.449zM2.99 119.288l776.406-59.45c13.072 28.245 20.674 58.99 21.929 90.266l-801.192 2.673c0.153-11.408 1.245-22.561 2.857-33.49zM632.914-64c52.766 12.796 95.021 45.205 124.073 85.552l-744.293 57.021c24.102-71.582 81.144-125.909 155.144-142.573h465.076zM217.992 294.289l415.106-36.429v47.858h-0.041v22.368zM801.028 305.718v36.041l-136.052-11.061v-75.644l136.726-11.99v62.654zM580.23 596.711l-366.055 0.194c-110.307 0-194.645-80.674-211.053-187.522l772.395 65.174c-34.664 69.776-103.338 122.154-195.288 122.154zM137.308 305.718h-0.173v51.245h30.766v-0.276h0.133v-26.459l632.384 51.48c-1.071 18.398-4.469 36.531-9.694 54.133l-790.722-66.746v-55.664l137.307-12.051v4.337z" horiz-adv-x="802" />
<glyph unicode="&#x71;" d="M1012.122 863.246l-5.58 20.237h-166.961c0 1.652 0.021 59.799 0.021 59.971 0 9.046-7.339 16.385-16.374 16.385l-621.823 0.161c-9.056 0-16.385-7.339-16.385-16.374 0-0.247-0.021-58.469 0-60.132h-169.418l-5.58-20.237c-18.756-68.362-11.020-144.192 21.814-213.519 32.866-69.403 89.758-129.341 160.18-168.732 12.136-6.803 24.583-12.887 37.223-18.327-4.635-7.5-7.339-16.299-7.339-25.72 0-27.179 22.029-49.166 49.166-49.166 21.439 0 39.605 13.702 46.333 32.813 46.859-60.4 99.157-99.576 160.223-109.158v-41.15c-25.237-5.805-27.072-18.831-27.072-33.972 0-11.771-1.223-22.233 15.28-29.068v-107.001l-89.886-34.98-64.113-26.439h-30.581v-63.512h-33.446v-39.326h526.529v39.315h-33.457v63.501h-30.592l-64.113 26.45-89.886 34.97v107.012c16.514 6.835 15.301 17.297 15.301 29.079 0 15.14-1.889 28.167-27.083 33.961v41.15c61.076 9.593 113.364 48.758 160.212 109.169 6.739-19.1 24.937-32.834 46.354-32.834 27.158 0 49.176 22.008 49.176 49.187 0 9.421-2.715 18.22-7.35 25.709 12.662 5.429 25.087 11.513 37.223 18.327 70.401 39.39 127.292 99.318 160.158 168.732 32.866 69.338 40.614 145.168 21.847 213.519zM218.917 529.056c-115.295 64.531-180.116 187.67-160.341 299.361h126.444c7.114-121.905 34.991-232.608 78.201-320.177-15.097 5.848-29.916 12.78-44.305 20.816zM803.238 529.056c-14.378-8.037-29.197-14.969-44.305-20.816 43.221 87.569 71.774 198.272 78.899 320.177h125.736c19.776-111.69-45.024-234.829-160.33-299.361z" horiz-adv-x="1022" />
<glyph unicode="&#x72;" d="M538.381 653.404c-100.382 0-181.664-12.922-181.664-28.858v-61.926c0 15.962 81.282 28.902 181.664 28.902 100.284 0 181.62-12.931 181.62-28.902v61.926c0 15.936-81.335 28.858-181.62 28.858zM816.784 960c0 0-80.458-6.169-80.458-101.118 0-111.576-66.002-96.234-66.002-96.234s-20.704-37.916 0-79.191c0 0 80.476-10.334 117.576 70.159 37.136 80.511-47.568 149.359 28.884 206.383zM411.986 683.458c20.668 41.275 0 79.191 0 79.191s-66.056-15.342-66.056 96.234c0 94.949-80.449 101.118-80.449 101.118 76.425-57.024-8.26-125.872 28.84-206.383 37.162-80.485 117.665-70.159 117.665-70.159zM538.381 579.788c-100.382 0-181.664-12.922-181.664-28.858 0-15.953 81.282-28.902 181.664-28.902 100.284 0 181.62 12.94 181.62 28.902s-81.335 28.858-181.62 28.858zM419.59 679.673l-1.994-4.042-4.52-0.594c0 0-3.758-0.479-10.077-0.479-6.39 0-15.324 0.55-25.49 2.49-2.748-9.457-4.866-19.153-6.603-28.902 27.555 10.361 92.13 17.673 167.466 17.673 79.891 0 147.551-8.225 171.817-19.614-1.773 10.325-3.935 20.518-6.833 30.542-9.625-1.746-17.956-2.207-24.098-2.207-6.319 0-10.059 0.479-10.059 0.479l-4.449 0.585-2.012 4.050c-22.344 44.51-1.055 84.934 0.071 86.981-39.75 63.441-92.857 106.781-122.362 106.781-29.354 0-81.92-42.746-121.626-105.496l0.656-1.223c0.842-1.675 22.406-42.312 0.115-87.025zM1080.165 384.625l-143.048 61.349-23.841 23.806 23.735 22.964-64.239 64.177-22.937-23.708-19.862 19.809-85.59-85.678 21.156-21.156-224.392-233.805-224.401 233.805 21.147 21.156-85.581 85.678-19.853-19.809-22.937 23.708-64.239-64.177 23.735-22.964-23.833-23.806-143.048-61.349c0 0-17.54-40.841 48.578-106.976 66.215-66.171 118.666-60.401 118.666-60.401l61.456 143.093 25.135 25.153 234.806-225.598-174.503-181.824 42.241-42.064 182.639 175.487 182.648-175.487 42.241 42.064-174.538 181.824 234.798 225.589 25.135-25.153 61.447-143.093c0 0 52.451-5.761 118.702 60.401 66.109 66.144 48.578 106.985 48.578 106.985z" horiz-adv-x="1082" />
<glyph unicode="&#x73;" d="M760.954 236.699c0-38.442-9.038-76.368-26.962-114.077-17.906-37.503-42.98-69.369-75.222-95.401-35.248-28.268-76.528-50.317-123.519-66.156-47.113-16.036-103.668-23.956-170.059-23.956-43.684 0-85.565 10.907-126.375 25.76-22.406 8.164-45.479 15.492-66.428 27.066-12.607 6.98-24.407 15.567-36.216 23.871-33.332 23.317-63.14 51.651-89.079 82.953-8.803 10.653-16.976 21.729-24.567 33.247-3.955 5.984-7.75 12.072-11.452 18.216-2.49 4.124-11.076 14.035-11.076 18.742v13.415h9.225c49.969-41.524 107.642-73.568 173.094-95.984 65.423-22.631 126.713-33.961 184.198-33.961 81.262 0 144.638 15.285 189.872 45.826 45.244 30.542 68.044 71.060 68.044 121.978 0 43.741-10.729 75.983-32.233 96.745-21.466 20.724-53.896 36.939-97.656 48.447-33.2 8.85-69.181 16.018-107.849 21.87-38.658 5.655-79.571 13.021-122.946 21.889-87.482 18.47-152.332 50.129-194.56 94.997-42.238 44.878-63.169 103.33-63.169 175.367 0 82.568 34.891 150.256 104.655 203.25 69.754 52.778 158.363 79.196 265.836 79.196 40.274 0 80.548-2.236 120.494-7.393 33.116-4.265 68.458-9.272 99.506-22.133 42.717-17.709 72.535-56.818 68.664-104.345-0.178-2.264-0.357-4.528-0.752-6.802l-6.98-45.798-6.961-45.451c7.356-9.507 14.665-19.061 22.058-28.55 5.815-7.431 11.668-14.862 17.427-22.331 4.876-6.332 9.507-16.976 16.826-20.856 11.161-5.928 29.94-3.607 42.275-5.374 5.289-0.752 8.859-5.477 8.117-10.569-0.564-5.27-5.289-8.85-10.569-8.286l-9.423 1.146c-8.681 1.729-18.93 3.401-27.826 3.429-3.523-11.602-3.852-24.961-5.139-36.996-0.592-5.28-5.289-8.85-10.569-8.117-5.12 0.592-8.859 5.289-8.117 10.559 1.503 11.593 8.596 32.411 4.735 43.534-3.063 8.812-11.922 15.567-17.596 22.697-6.322 7.967-12.41 16.187-18.61 24.266-3.42 4.538-17.427 29.301-23.223 30.166 0 0-80.84 12.25-80.858 12.25-24.003 3.645-43.91 15.388-60.238 33.116-16.412 17.85-20.94 39.513-24.473 62.708-2.104 14.073-19.193 12.654-29.95 13.81-19.804 2.161-39.673 1.982-59.561 1.982-70.167 0-126.732-14.721-169.326-43.929-42.623-29.038-63.911-66.551-63.911-112.555 0-41.11 10.569-73.362 31.866-96.745 21.119-23.571 58.443-41.477 111.992-53.727 28.277-6.238 68.448-13.754 120.475-22.631 52.233-8.85 96.35-17.897 132.744-27.141 73.352-19.418 128.582-48.833 165.522-88.064 37.155-39.41 55.822-94.452 55.822-165.174z" horiz-adv-x="761" />
<glyph unicode="&#x74;" d="M394.496 341.156c-195.645 0-357.939 45.199-389.048 104.55 31.15-231.823 193.649-510.29 389.55-510.29 196.721 0 359.793 280.801 389.96 513.137-27.249-60.713-191.662-107.397-390.461-107.397zM938.957 762.9c-46.756-25.426-146.452 48.148-202.721 59.197 5.448 2.048 10.629 3.891 15.227 5.263 47.544 14.162 182.262-47.227 227.164-59.812 44.923-12.575-23.777 192.010-67.348 146.381-43.571-45.65-182.252 6.298-227.164-18.893-12.708-7.117-24.494-21.258-34.97-37.724-68.68 64.051-157.307 102.687-254.126 102.687-218.163 0-395.018-195.901-395.018-437.535 0-14.285 0.645-28.979 1.864-43.899 19.22 63.498 187.658 83.241 392.643 83.241 208.435 0 379.013-21.422 393.431-86.456 1.372 16.036 2.089 31.785 2.089 47.104 0 77.138-18.094 149.576-49.715 212.511 9.114 0.379 17.572 0.471 24.689 0.061 48.937-2.796 163.072-107.919 202.977-135.414 39.946-27.525 23.767 191.98-29.020 163.287zM368.486 424.643l-230.636 84.562-17.326-47.299 92.355-13.875c-6.38-5.786-10.445-14.090-10.445-23.388 0-17.521 14.203-31.734 31.724-31.734 17.531 0 31.744 14.213 31.744 31.734 0 5.908-1.72 11.366-4.516 16.108l107.1-16.108zM577.188 448.020l92.355 13.875-17.326 47.309-230.646-84.572 107.131 16.087c-2.816-4.741-4.516-10.199-4.516-16.087 0-17.521 14.213-31.734 31.734-31.734s31.764 14.213 31.764 31.734c-0.072 9.298-4.116 17.603-10.496 23.388z" horiz-adv-x="993" />
</font>
</defs>
</svg>
